<svg id="svg" baseProfile="full" xmlns="http://www.w3.org/2000/svg" xmlns:xlink="http://www.w3.org/1999/xlink" version="1.1" style = "background:white" viewBox="0 0 400 400">
<g id="outerG" transform = "translate(200 200)scale(1.4605861840093772)">
<g id="circle" transform="translate(-0.00000381406 1.58786e-7)">
<g id="circle_borderProperties" >

</g>
<circle visibility="inherit" stroke="black" stroke-width="1" fill="rgb(175, 175, 175)" r="109.54505122443268" id="border"></circle>
</g>
<g id="spiral" transform="translate(-1.57407 -68.37294)">
<g id="spiral_connectedEdges" >

</g>
<g id="spiral_spokes" >
<path visibility="inherit" stroke="transparent" fill="black" d="M 0 0 A 0.83333 0.83333 0 0 1  0.19070 -0.99807 A 1.66666 1.66666 0 0 1  0.48334 -0.96875 A 1.66666 1.66666 0 0 1  0.84453 -0.88838 A 2.5 2.5 0 0 1  1.26317 -0.72904 A 3.33333 3.33333 0 0 1  1.71887 -0.46045 A 4.16666 4.16666 0 0 1  2.17954 -0.05347 A 5 5 0 0 1  2.60021 0.51499 A 5.83333 5.83333 0 0 1  2.92365 1.25672 A 6.66666 6.66666 0 0 1  3.08277 2.16684 A 7.5 7.5 0 0 1  3.00444 3.21903 A 8.33333 8.33333 0 0 1  2.61488 4.36084 A 9.16666 9.16666 0 0 1  1.84730 5.50945 A 10 10 0 0 1  0.65272 6.54875 A 10.83333 10.83333 0 0 1  -0.98570 7.32974 A 11.66666 11.66666 0 0 1  -3.03540 7.67652 A 12.5 12.5 0 0 1  -5.39632 7.40065 A 13.33333 13.33333 0 0 1  -7.88555 6.32553 A 14.16666 14.16666 0 0 1  -10.22998 4.32144 A 15 15 0 0 1  -12.07292 1.34928 A 15.83333 15.83333 0 0 1  -13.00118 -2.49212 A 16.66666 16.66666 0 0 1  -12.59739 -6.92424 A 17.5 17.5 0 0 1  -10.51866 -11.46553 A 18.33333 18.33333 0 0 1  -6.59615 -15.44214 A 19.16666 19.16666 0 0 1  -0.94168 -18.04762 A 20 20 0 0 1  5.96282 -18.46134 A 20.83333 20.83333 0 0 1  13.22519 -16.02400 A 21.66666 21.66666 0 0 1  19.58779 -10.45071 A 22.5 22.5 0 0 1  23.58603 -2.04030 A 23.33333 23.33333 0 0 1  22.00813 8.18803 A 24.16666 24.16666 0 0 1  17.67766 17.67766 L 17.67766 17.67766 A 23.33333 23.33333 0 0 0  22.00813 8.18803 A 22.5 22.5 0 0 0  20.35778 -0.58582 A 21.66666 21.66666 0 0 0  17.26674 -7.91022 A 20.83333 20.83333 0 0 0  12.09320 -12.87660 A 20 20 0 0 0  6.08567 -15.21193 A 19.16666 19.16666 0 0 0  0.31591 -15.14647 A 18.33333 18.33333 0 0 0  -4.45798 -13.23141 A 17.5 17.5 0 0 0  -7.82896 -10.15394 A 16.66666 16.66666 0 0 0  -9.70445 -6.58622 A 15.83333 15.83333 0 0 0  -10.22765 -3.08462 A 15 15 0 0 0  -9.68496 -0.04042 A 14.16666 14.16666 0 0 0  -8.42043 2.32700 A 13.33333 13.33333 0 0 0  -6.76916 3.94820 A 12.5 12.5 0 0 0  -5.01409 4.86620 A 11.66666 11.66666 0 0 0  -3.36464 5.19514 A 10.83333 10.83333 0 0 0  -1.95304 5.08266 A 10 10 0 0 0  -0.84235 4.68019 A 9.16666 9.16666 0 0 0  -0.04122 4.12268 A 8.33333 8.33333 0 0 0  0.47923 3.51721 A 7.5 7.5 0 0 0  0.76915 2.93892 A 6.66666 6.66666 0 0 0  0.88614 2.43241 A 5.83333 5.83333 0 0 0  0.88500 2.01693 A 5 5 0 0 0  0.81123 1.69344 A 4.16666 4.16666 0 0 0  0.69854 1.45224 A 3.33333 3.33333 0 0 0  0.56959 1.27928 A 2.5 2.5 0 0 0  0.43859 1.16029 A 1.66666 1.66666 0 0 0  0.31428 1.08266 A 3.33333 3.33333 0 0 0  0.20227 1.03574 A 2.5 2.5 0 0 0  0.10625 1.01055 A 0.83333 0.83333 0 0 0 0 0" id="0"></path><path visibility="inherit" stroke="transparent" fill="black" d="M 0 0 A 0.83333 0.83333 0 0 1  0.76900 0.66419 A 1.66666 1.66666 0 0 1  0.59729 0.90297 A 1.66666 1.66666 0 0 1  0.34709 1.17558 A 2.5 2.5 0 0 1  -0.00021 1.45846 A 3.33333 3.33333 0 0 1  -0.46067 1.71881 A 4.16666 4.16666 0 0 1  -1.04346 1.91428 A 5 5 0 0 1  -1.74610 1.99435 A 5.83333 5.83333 0 0 1  -2.55018 1.90359 A 6.66666 6.66666 0 0 1  -3.41793 1.58634 A 7.5 7.5 0 0 1  -4.28999 0.99240 A 8.33333 8.33333 0 0 1  -5.08404 0.08413 A 9.16666 9.16666 0 0 1  -5.69497 -1.15491 A 10 10 0 0 1  -5.99775 -2.70910 A 10.83333 10.83333 0 0 1  -5.85489 -4.51851 A 11.66666 11.66666 0 0 1  -5.13036 -6.46700 A 12.5 12.5 0 0 1  -3.71099 -8.37367 A 13.33333 13.33333 0 0 1  -1.53529 -9.99185 A 14.16666 14.16666 0 0 1  1.37251 -11.02014 A 15 15 0 0 1  4.86794 -11.13009 A 15.83333 15.83333 0 0 1  8.65883 -10.01329 A 16.66666 16.66666 0 0 1  12.29527 -7.44754 A 17.5 17.5 0 0 1  15.18877 -3.37666 A 18.33333 18.33333 0 0 1  16.67137 2.00863 A 19.16666 19.16666 0 0 1  16.10054 8.20828 A 20 20 0 0 1  13.00658 14.39462 A 20.83333 20.83333 0 0 1  7.26459 19.46536 A 21.66666 21.66666 0 0 1  -0.74331 22.18888 A 22.5 22.5 0 0 1  -10.02605 21.44626 A 23.33333 23.33333 0 0 1  -18.09510 14.96558 A 24.16666 24.16666 0 0 1  -24.14814 6.47047 L -24.14814 6.47047 A 23.33333 23.33333 0 0 0  -18.09510 14.96558 A 22.5 22.5 0 0 0  -9.67155 17.92327 A 21.66666 21.66666 0 0 0  -1.78291 18.90855 A 20.83333 20.83333 0 0 0  5.10486 16.91132 A 20 20 0 0 0  10.13108 12.87631 A 19.16666 19.16666 0 0 0  12.95927 7.84683 A 18.33333 18.33333 0 0 0  13.68773 2.75497 A 17.5 17.5 0 0 0  12.70806 -1.70311 A 16.66666 16.66666 0 0 0  10.55606 -5.11118 A 15.83333 15.83333 0 0 0  7.78519 -7.31509 A 15 15 0 0 0  4.87749 -8.36721 A 14.16666 14.16666 0 0 0  2.19497 -8.45581 A 13.33333 13.33333 0 0 0  -0.03466 -7.83637 A 12.5 12.5 0 0 0  -1.70720 -6.77543 A 11.66666 11.66666 0 0 0  -2.81680 -5.51144 A 10.83333 10.83333 0 0 0  -3.42519 -4.23271 A 10 10 0 0 0  -3.63199 -3.06959 A 9.16666 9.16666 0 0 0  -3.54974 -2.09704 A 8.33333 8.33333 0 0 0  -3.28561 -1.34357 A 7.5 7.5 0 0 0  -2.92975 -0.80335 A 6.66666 6.66666 0 0 0  -2.54961 -0.44878 A 5.83333 5.83333 0 0 0  -2.18921 -0.24202 A 5 5 0 0 0  -1.87218 -0.14417 A 4.16666 4.16666 0 0 0  -1.60695 -0.12116 A 3.33333 3.33333 0 0 0  -1.39268 -0.14635 A 2.5 2.5 0 0 0  -1.22413 -0.20031 A 1.66666 1.66666 0 0 0  -1.09476 -0.26915 A 3.33333 3.33333 0 0 0  -0.99811 -0.34269 A 2.5 2.5 0 0 0  -0.92829 -0.41325 A 0.83333 0.83333 0 0 0 0 0" id="1"></path><path visibility="inherit" stroke="transparent" fill="black" d="M 0 0 A 0.83333 0.83333 0 0 1  -0.95970 0.33388 A 1.66666 1.66666 0 0 1  -1.08064 0.06578 A 1.66666 1.66666 0 0 1  -1.19162 -0.28720 A 2.5 2.5 0 0 1  -1.26296 -0.72941 A 3.33333 3.33333 0 0 1  -1.25820 -1.25836 A 4.16666 4.16666 0 0 1  -1.13608 -1.86080 A 5 5 0 0 1  -0.85410 -2.50935 A 5.83333 5.83333 0 0 1  -0.37347 -3.16032 A 6.66666 6.66666 0 0 1  0.33515 -3.75318 A 7.5 7.5 0 0 1  1.28554 -4.21144 A 8.33333 8.33333 0 0 1  2.46915 -4.44497 A 9.16666 9.16666 0 0 1  3.84767 -4.35453 A 10 10 0 0 1  5.34502 -3.83965 A 10.83333 10.83333 0 0 1  6.84059 -2.81122 A 11.66666 11.66666 0 0 1  8.16576 -1.20952 A 12.5 12.5 0 0 1  9.10731 0.97302 A 13.33333 13.33333 0 0 1  9.42084 3.66632 A 14.16666 14.16666 0 0 1  8.85747 6.69870 A 15 15 0 0 1  7.20497 9.78081 A 15.83333 15.83333 0 0 1  4.34234 12.50541 A 16.66666 16.66666 0 0 1  0.30212 14.37179 A 17.5 17.5 0 0 1  -4.67011 14.84219 A 18.33333 18.33333 0 0 1  -10.07521 13.43351 A 19.16666 19.16666 0 0 1  -15.15885 9.83933 A 20 20 0 0 1  -18.96940 4.06671 A 20.83333 20.83333 0 0 1  -20.48979 -3.44135 A 21.66666 21.66666 0 0 1  -18.84447 -11.73816 A 22.5 22.5 0 0 1  -13.55997 -19.40595 A 23.33333 23.33333 0 0 1  -3.91302 -23.15361 A 24.16666 24.16666 0 0 1  6.47047 -24.14814 L 6.47047 -24.14814 A 23.33333 23.33333 0 0 0  -3.91302 -23.15361 A 22.5 22.5 0 0 0  -10.68623 -17.33744 A 21.66666 21.66666 0 0 0  -15.48382 -10.99832 A 20.83333 20.83333 0 0 0  -17.19807 -4.03471 A 20 20 0 0 0  -16.21675 2.33562 A 19.16666 19.16666 0 0 0  -13.27519 7.29964 A 18.33333 18.33333 0 0 0  -9.22974 10.47643 A 17.5 17.5 0 0 0  -4.87909 11.85705 A 16.66666 16.66666 0 0 0  -0.85161 11.69741 A 15.83333 15.83333 0 0 0  2.44246 10.39971 A 15 15 0 0 0  4.80747 8.40764 A 14.16666 14.16666 0 0 0  6.22546 6.12880 A 13.33333 13.33333 0 0 0  6.80383 3.88816 A 12.5 12.5 0 0 0  6.72129 1.90922 A 11.66666 11.66666 0 0 0  6.18145 0.31629 A 10.83333 10.83333 0 0 0  5.37824 -0.84995 A 10 10 0 0 0  4.47434 -1.61059 A 9.16666 9.16666 0 0 0  3.59096 -2.02564 A 8.33333 8.33333 0 0 0  2.80637 -2.17363 A 7.5 7.5 0 0 0  2.16060 -2.13556 A 6.66666 6.66666 0 0 0  1.66346 -1.98363 A 5.83333 5.83333 0 0 0  1.30421 -1.77490 A 5 5 0 0 0  1.06094 -1.54927 A 4.16666 4.16666 0 0 0  0.90840 -1.33108 A 3.33333 3.33333 0 0 0  0.82309 -1.13292 A 2.5 2.5 0 0 0  0.78554 -0.95997 A 1.66666 1.66666 0 0 0  0.78047 -0.81351 A 3.33333 3.33333 0 0 0  0.79584 -0.69304 A 2.5 2.5 0 0 0  0.82204 -0.59729 A 0.83333 0.83333 0 0 0 0 0" id="2"></path>
</g>

</g>
<g id="spiral1" transform="translate(-75.07007 15.30516)">
<g id="spiral1_connectedEdges" >

</g>
<g id="spiral1_spokes" >
<path visibility="inherit" stroke="transparent" fill="red" d="M 0 0 A 0.83333 0.83333 0 0 1  0.15430 -1.01609 A 1.66666 1.66666 0 0 1  0.36373 -1.03461 A 1.66666 1.66666 0 0 1  0.62483 -1.05330 A 2.5 2.5 0 0 1  0.93802 -1.06934 A 3.33333 3.33333 0 0 1  1.30372 -1.07934 A 4.16666 4.16666 0 0 1  1.72228 -1.07930 A 5 5 0 0 1  2.19396 -1.06463 A 5.83333 5.83333 0 0 1  2.71882 -1.03012 A 6.66666 6.66666 0 0 1  3.29667 -0.96996 A 7.5 7.5 0 0 1  3.92695 -0.87769 A 8.33333 8.33333 0 0 1  4.60866 -0.74626 A 9.16666 9.16666 0 0 1  5.34023 -0.56800 A 10 10 0 0 1  6.11939 -0.33469 A 10.83333 10.83333 0 0 1  6.94304 -0.03760 A 11.66666 11.66666 0 0 1  7.80715 0.33245 A 12.5 12.5 0 0 1  8.70657 0.78504 A 13.33333 13.33333 0 0 1  9.63489 1.32997 A 14.16666 14.16666 0 0 1  10.58436 1.97714 A 15 15 0 0 1  11.54569 2.73641 A 15.83333 15.83333 0 0 1  12.50801 3.61738 A 16.66666 16.66666 0 0 1  13.45870 4.62917 A 17.5 17.5 0 0 1  14.38340 5.78021 A 18.33333 18.33333 0 0 1  15.26590 7.07792 A 19.16666 19.16666 0 0 1  16.08816 8.52846 A 20 20 0 0 1  16.83036 10.13641 A 20.83333 20.83333 0 0 1  17.47091 11.90445 A 21.66666 21.66666 0 0 1  17.98660 13.83308 A 22.5 22.5 0 0 1  18.35271 15.92021 A 23.33333 23.33333 0 0 1  18.54326 18.16091 A 24.16666 24.16666 0 0 1  18.53117 20.54700 L 10.85808 19.90384 A 23.33333 23.33333 0 0 0  11.18944 18.19253 A 22.5 22.5 0 0 0  11.36333 16.55919 A 21.66666 21.66666 0 0 0  11.39709 15.01096 A 20.83333 20.83333 0 0 0  11.30740 13.55286 A 20 20 0 0 0  11.11010 12.18814 A 19.16666 19.16666 0 0 0  10.82015 10.91843 A 18.33333 18.33333 0 0 0  10.45155 9.74405 A 17.5 17.5 0 0 0  10.01736 8.66415 A 16.66666 16.66666 0 0 0  9.52966 7.67693 A 15.83333 15.83333 0 0 0  8.99960 6.77980 A 15 15 0 0 0  8.43743 5.96951 A 14.16666 14.16666 0 0 0  7.85255 5.24226 A 13.33333 13.33333 0 0 0  7.25352 4.59386 A 12.5 12.5 0 0 0  6.64810 4.01975 A 11.66666 11.66666 0 0 0  6.04335 3.51513 A 10.83333 10.83333 0 0 0  5.44558 3.07504 A 10 10 0 0 0  4.86046 2.69438 A 9.16666 9.16666 0 0 0  4.29303 2.36803 A 8.33333 8.33333 0 0 0  3.74773 2.09087 A 7.5 7.5 0 0 0  3.22844 1.85786 A 6.66666 6.66666 0 0 0  2.73853 1.66410 A 5.83333 5.83333 0 0 0  2.28090 1.50485 A 5 5 0 0 0  1.85800 1.37563 A 4.16666 4.16666 0 0 0  1.47189 1.27220 A 3.33333 3.33333 0 0 0  1.12428 1.19065 A 2.5 2.5 0 0 0  0.81656 1.12743 A 1.66666 1.66666 0 0 0  0.54987 1.07932 A 3.33333 3.33333 0 0 0  0.32509 1.04355 A 2.5 2.5 0 0 0  0.14291 1.01775 A 0.83333 0.83333 0 0 0 0 0" id="0"></path><path visibility="inherit" stroke="transparent" fill="red" d="M 0 0 A 0.83333 0.83333 0 0 1  -0.15430 1.01609 A 1.66666 1.66666 0 0 1  -0.36373 1.03461 A 1.66666 1.66666 0 0 1  -0.62483 1.05330 A 2.5 2.5 0 0 1  -0.93802 1.06934 A 3.33333 3.33333 0 0 1  -1.30372 1.07934 A 4.16666 4.16666 0 0 1  -1.72228 1.07930 A 5 5 0 0 1  -2.19396 1.06463 A 5.83333 5.83333 0 0 1  -2.71882 1.03012 A 6.66666 6.66666 0 0 1  -3.29667 0.96996 A 7.5 7.5 0 0 1  -3.92695 0.87769 A 8.33333 8.33333 0 0 1  -4.60866 0.74626 A 9.16666 9.16666 0 0 1  -5.34023 0.56800 A 10 10 0 0 1  -6.11939 0.33469 A 10.83333 10.83333 0 0 1  -6.94304 0.03760 A 11.66666 11.66666 0 0 1  -7.80715 -0.33245 A 12.5 12.5 0 0 1  -8.70657 -0.78504 A 13.33333 13.33333 0 0 1  -9.63489 -1.32997 A 14.16666 14.16666 0 0 1  -10.58436 -1.97714 A 15 15 0 0 1  -11.54569 -2.73641 A 15.83333 15.83333 0 0 1  -12.50801 -3.61738 A 16.66666 16.66666 0 0 1  -13.45870 -4.62917 A 17.5 17.5 0 0 1  -14.38340 -5.78021 A 18.33333 18.33333 0 0 1  -15.26590 -7.07792 A 19.16666 19.16666 0 0 1  -16.08816 -8.52846 A 20 20 0 0 1  -16.83036 -10.13641 A 20.83333 20.83333 0 0 1  -17.47091 -11.90445 A 21.66666 21.66666 0 0 1  -17.98660 -13.83308 A 22.5 22.5 0 0 1  -18.35271 -15.92021 A 23.33333 23.33333 0 0 1  -18.54326 -18.16091 A 24.16666 24.16666 0 0 1  -18.53117 -20.54700 L -10.85808 -19.90384 A 23.33333 23.33333 0 0 0  -11.18944 -18.19253 A 22.5 22.5 0 0 0  -11.36333 -16.55919 A 21.66666 21.66666 0 0 0  -11.39709 -15.01096 A 20.83333 20.83333 0 0 0  -11.30740 -13.55286 A 20 20 0 0 0  -11.11010 -12.18814 A 19.16666 19.16666 0 0 0  -10.82015 -10.91843 A 18.33333 18.33333 0 0 0  -10.45155 -9.74405 A 17.5 17.5 0 0 0  -10.01736 -8.66415 A 16.66666 16.66666 0 0 0  -9.52966 -7.67693 A 15.83333 15.83333 0 0 0  -8.99960 -6.77980 A 15 15 0 0 0  -8.43743 -5.96951 A 14.16666 14.16666 0 0 0  -7.85255 -5.24226 A 13.33333 13.33333 0 0 0  -7.25352 -4.59386 A 12.5 12.5 0 0 0  -6.64810 -4.01975 A 11.66666 11.66666 0 0 0  -6.04335 -3.51513 A 10.83333 10.83333 0 0 0  -5.44558 -3.07504 A 10 10 0 0 0  -4.86046 -2.69438 A 9.16666 9.16666 0 0 0  -4.29303 -2.36803 A 8.33333 8.33333 0 0 0  -3.74773 -2.09087 A 7.5 7.5 0 0 0  -3.22844 -1.85786 A 6.66666 6.66666 0 0 0  -2.73853 -1.66410 A 5.83333 5.83333 0 0 0  -2.28090 -1.50485 A 5 5 0 0 0  -1.85800 -1.37563 A 4.16666 4.16666 0 0 0  -1.47189 -1.27220 A 3.33333 3.33333 0 0 0  -1.12428 -1.19065 A 2.5 2.5 0 0 0  -0.81656 -1.12743 A 1.66666 1.66666 0 0 0  -0.54987 -1.07932 A 3.33333 3.33333 0 0 0  -0.32509 -1.04355 A 2.5 2.5 0 0 0  -0.14291 -1.01775 A 0.83333 0.83333 0 0 0 0 0" id="1"></path>
</g>

</g>
<g id="spiral2" transform="translate(2.47056 21.54238)">
<g id="spiral2_connectedEdges" >

</g>
<g id="spiral2_spokes" >
<path visibility="inherit" stroke="transparent" fill="green" d="M 0 0 A 0.83333 0.83333 0 0 1  0.16585 -1.02440 A 1.66666 1.66666 0 0 1  0.40340 -1.04762 A 1.66666 1.66666 0 0 1  0.70260 -1.06177 A 2.5 2.5 0 0 1  1.06456 -1.05690 A 3.33333 3.33333 0 0 1  1.48956 -1.02076 A 4.16666 4.16666 0 0 1  1.97648 -0.93887 A 5 5 0 0 1  2.52201 -0.79452 A 5.83333 5.83333 0 0 1  3.11980 -0.56911 A 6.66666 6.66666 0 0 1  3.75959 -0.24263 A 7.5 7.5 0 0 1  4.42629 0.20555 A 8.33333 8.33333 0 0 1  5.09923 0.79558 A 9.16666 9.16666 0 0 1  5.75161 1.54576 A 10 10 0 0 1  6.35030 2.47090 A 10.83333 10.83333 0 0 1  6.85588 3.58061 A 11.66666 11.66666 0 0 1  7.22326 4.87744 A 12.5 12.5 0 0 1  7.40256 6.35503 A 13.33333 13.33333 0 0 1  7.34046 7.99632 A 14.16666 14.16666 0 0 1  6.98208 9.77177 A 15 15 0 0 1  6.27326 11.63785 A 15.83333 15.83333 0 0 1  5.16356 13.53571 A 16.66666 16.66666 0 0 1  3.60980 15.39029 A 17.5 17.5 0 0 1  1.58027 17.11017 A 18.33333 18.33333 0 0 1  -0.94047 18.58824 A 19.16666 19.16666 0 0 1  -3.94634 19.70360 A 20 20 0 0 1  -7.40431 20.32496 A 20.83333 20.83333 0 0 1  -11.24908 20.31573 A 21.66666 21.66666 0 0 1  -15.37849 19.54109 A 22.5 22.5 0 0 1  -19.65003 17.87690 A 23.33333 23.33333 0 0 1  -23.87930 15.22074 A 24.16666 24.16666 0 0 1  -27.84118 11.50432 L -19.71163 3.94652 A 23.33333 23.33333 0 0 0  -17.64990 6.70941 A 22.5 22.5 0 0 0  -15.33679 8.84158 A 21.66666 21.66666 0 0 0  -12.91598 10.37216 A 20.83333 20.83333 0 0 0  -10.50686 11.35357 A 20 20 0 0 0  -8.20338 11.85353 A 19.16666 19.16666 0 0 0  -6.07465 11.94792 A 18.33333 18.33333 0 0 0  -4.16697 11.71490 A 17.5 17.5 0 0 0  -2.50655 11.23024 A 16.66666 16.66666 0 0 0  -1.10292 10.56391 A 15.83333 15.83333 0 0 0  0.04763 9.77785 A 15 15 0 0 0  0.95867 8.92468 A 14.16666 14.16666 0 0 0  1.65042 8.04731 A 13.33333 13.33333 0 0 0  2.14705 7.17923 A 12.5 12.5 0 0 0  2.47439 6.34527 A 11.66666 11.66666 0 0 0  2.65817 5.56275 A 10.83333 10.83333 0 0 0  2.72279 4.84275 A 10 10 0 0 0  2.69061 4.19146 A 9.16666 9.16666 0 0 0  2.58165 3.61142 A 8.33333 8.33333 0 0 0  2.41357 3.10250 A 7.5 7.5 0 0 0  2.20193 2.66273 A 6.66666 6.66666 0 0 0  1.96044 2.28879 A 5.83333 5.83333 0 0 0  1.70123 1.97633 A 5 5 0 0 0  1.43503 1.72023 A 4.16666 4.16666 0 0 0  1.17126 1.51477 A 3.33333 3.33333 0 0 0  0.91806 1.35378 A 2.5 2.5 0 0 0  0.68234 1.23089 A 1.66666 1.66666 0 0 0  0.46979 1.13979 A 3.33333 3.33333 0 0 0  0.28496 1.07445 A 2.5 2.5 0 0 0  0.13132 1.02939 A 0.83333 0.83333 0 0 0 0 0" id="0"></path><path visibility="inherit" stroke="transparent" fill="green" d="M 0 0 A 0.83333 0.83333 0 0 1  0.80423 0.65583 A 1.66666 1.66666 0 0 1  0.70556 0.87317 A 1.66666 1.66666 0 0 1  0.56822 1.13936 A 2.5 2.5 0 0 1  0.38302 1.45039 A 3.33333 3.33333 0 0 1  0.13922 1.80038 A 4.16666 4.16666 0 0 1  -0.17515 2.18112 A 5 5 0 0 1  -0.57292 2.58139 A 5.83333 5.83333 0 0 1  -1.06703 2.98639 A 6.66666 6.66666 0 0 1  -1.66967 3.37722 A 7.5 7.5 0 0 1  -2.39116 3.73050 A 8.33333 8.33333 0 0 1  -3.23861 4.01827 A 9.16666 9.16666 0 0 1  -4.21448 4.20816 A 10 10 0 0 1  -5.31501 4.26406 A 10.83333 10.83333 0 0 1  -6.52884 4.14706 A 11.66666 11.66666 0 0 1  -7.83562 3.81681 A 12.5 12.5 0 0 1  -9.20490 3.23328 A 13.33333 13.33333 0 0 1  -10.59525 2.35887 A 14.16666 14.16666 0 0 1  -11.95364 1.16077 A 15 15 0 0 1  -13.21531 -0.38612 A 15.83333 15.83333 0 0 1  -14.30405 -2.29607 A 16.66666 16.66666 0 0 1  -15.13329 -4.56896 A 17.5 17.5 0 0 1  -15.60798 -7.18653 A 18.33333 18.33333 0 0 1  -15.62765 -10.10859 A 19.16666 19.16666 0 0 1  -15.09064 -13.26943 A 20 20 0 0 1  -13.89977 -16.57480 A 20.83333 20.83333 0 0 1  -11.96940 -19.89986 A 21.66666 21.66666 0 0 1  -9.23383 -23.08871 A 22.5 22.5 0 0 1  -5.65684 -25.95588 A 23.33333 23.33333 0 0 1  -1.24189 -28.29045 A 24.16666 24.16666 0 0 1  3.95755 -29.86333 L 6.43802 -19.04404 A 23.33333 23.33333 0 0 0  3.01442 -18.63996 A 22.5 22.5 0 0 0  0.01135 -17.70284 A 21.66666 21.66666 0 0 0  -2.52456 -16.37165 A 20.83333 20.83333 0 0 0  -4.57905 -14.77600 A 20 20 0 0 0  -6.16377 -13.03110 A 19.16666 19.16666 0 0 0  -7.30988 -11.23477 A 18.33333 18.33333 0 0 0  -8.06192 -9.46615 A 17.5 17.5 0 0 0  -8.47239 -7.78586 A 16.66666 16.66666 0 0 0  -8.59715 -6.23712 A 15.83333 15.83333 0 0 0  -8.49168 -4.84767 A 15 15 0 0 0  -8.20833 -3.63210 A 14.16666 14.16666 0 0 0  -7.79438 -2.59434 A 13.33333 13.33333 0 0 0  -7.29092 -1.73020 A 12.5 12.5 0 0 0  -6.73236 -1.02974 A 11.66666 11.66666 0 0 0  -6.14657 -0.47933 A 10.83333 10.83333 0 0 0  -5.55534 -0.06337 A 10 10 0 0 0  -4.97522 0.23440 A 9.16666 9.16666 0 0 0  -4.41840 0.43006 A 8.33333 8.33333 0 0 0  -3.89363 0.53896 A 7.5 7.5 0 0 0  -3.40696 0.57556 A 6.66666 6.66666 0 0 0  -2.96237 0.55339 A 5.83333 5.83333 0 0 0  -2.56217 0.48514 A 5 5 0 0 0  -2.20728 0.38265 A 4.16666 4.16666 0 0 0  -1.89746 0.25695 A 3.33333 3.33333 0 0 0  -1.63144 0.11817 A 2.5 2.5 0 0 0  -1.40716 -0.02451 A 1.66666 1.66666 0 0 0  -1.22199 -0.16303 A 3.33333 3.33333 0 0 0  -1.07298 -0.29044 A 2.5 2.5 0 0 0  -0.95715 -0.40096 A 0.83333 0.83333 0 0 0 0 0" id="1"></path><path visibility="inherit" stroke="transparent" fill="green" d="M 0 0 A 0.83333 0.83333 0 0 1  -0.97008 0.36857 A 1.66666 1.66666 0 0 1  -1.10897 0.17445 A 1.66666 1.66666 0 0 1  -1.27083 -0.07758 A 2.5 2.5 0 0 1  -1.44758 -0.39348 A 3.33333 3.33333 0 0 1  -1.62879 -0.77961 A 4.16666 4.16666 0 0 1  -1.80133 -1.24225 A 5 5 0 0 1  -1.94908 -1.78686 A 5.83333 5.83333 0 0 1  -2.05277 -2.41727 A 6.66666 6.66666 0 0 1  -2.08992 -3.13458 A 7.5 7.5 0 0 1  -2.03513 -3.93605 A 8.33333 8.33333 0 0 1  -1.86061 -4.81385 A 9.16666 9.16666 0 0 1  -1.53713 -5.75393 A 10 10 0 0 1  -1.03528 -6.73497 A 10.83333 10.83333 0 0 1  -0.32703 -7.72768 A 11.66666 11.66666 0 0 1  0.61235 -8.69425 A 12.5 12.5 0 0 1  1.80234 -9.58832 A 13.33333 13.33333 0 0 1  3.25478 -10.35519 A 14.16666 14.16666 0 0 1  4.97156 -10.93254 A 15 15 0 0 1  6.94204 -11.25173 A 15.83333 15.83333 0 0 1  9.14048 -11.23963 A 16.66666 16.66666 0 0 1  11.52348 -10.82133 A 17.5 17.5 0 0 1  14.02771 -9.92364 A 18.33333 18.33333 0 0 1  16.56812 -8.47964 A 19.16666 19.16666 0 0 1  19.03699 -6.43416 A 20 20 0 0 1  21.30408 -3.75015 A 20.83333 20.83333 0 0 1  23.21849 -0.41587 A 21.66666 21.66666 0 0 1  24.61233 3.54762 A 22.5 22.5 0 0 1  25.30687 8.07897 A 23.33333 23.33333 0 0 1  25.12120 13.06971 A 24.16666 24.16666 0 0 1  23.88363 18.35901 L 13.27360 15.09751 A 23.33333 23.33333 0 0 0  14.63547 11.93055 A 22.5 22.5 0 0 0  15.32543 8.86125 A 21.66666 21.66666 0 0 0  15.44055 5.99949 A 20.83333 20.83333 0 0 0  15.08591 3.42242 A 20 20 0 0 0  14.36715 1.17756 A 19.16666 19.16666 0 0 0  13.38453 -0.71315 A 18.33333 18.33333 0 0 0  12.22889 -2.24875 A 17.5 17.5 0 0 0  10.97895 -3.44438 A 16.66666 16.66666 0 0 0  9.70008 -4.32679 A 15.83333 15.83333 0 0 0  8.44405 -4.93017 A 15 15 0 0 0  7.24966 -5.29257 A 14.16666 14.16666 0 0 0  6.14396 -5.45296 A 13.33333 13.33333 0 0 0  5.14386 -5.44902 A 12.5 12.5 0 0 0  4.25797 -5.31552 A 11.66666 11.66666 0 0 0  3.48839 -5.08341 A 10.83333 10.83333 0 0 0  2.83255 -4.77938 A 10 10 0 0 0  2.28460 -4.42587 A 9.16666 9.16666 0 0 0  1.83675 -4.04148 A 8.33333 8.33333 0 0 0  1.48006 -3.64146 A 7.5 7.5 0 0 0  1.20503 -3.23829 A 6.66666 6.66666 0 0 0  1.00192 -2.84218 A 5.83333 5.83333 0 0 0  0.86093 -2.46147 A 5 5 0 0 0  0.77225 -2.10289 A 4.16666 4.16666 0 0 0  0.72620 -1.77173 A 3.33333 3.33333 0 0 0  0.71337 -1.47196 A 2.5 2.5 0 0 0  0.72481 -1.20638 A 1.66666 1.66666 0 0 0  0.75219 -0.97675 A 3.33333 3.33333 0 0 0  0.78802 -0.78400 A 2.5 2.5 0 0 0  0.82582 -0.62843 A 0.83333 0.83333 0 0 0 0 0" id="2"></path>
</g>

</g>
<g id="spiral3" transform="translate(75.23006 20.42443)">
<g id="spiral3_connectedEdges" >

</g>
<g id="spiral3_spokes" >
<path visibility="inherit" stroke="transparent" fill="blue" d="M 0 0 A 0.83333 0.83333 0 0 1  0.17693 -1.00881 A 1.66666 1.66666 0 0 1  0.43937 -1.00420 A 1.66666 1.66666 0 0 1  0.76768 -0.97178 A 2.5 2.5 0 0 1  1.15916 -0.89377 A 3.33333 3.33333 0 0 1  1.60745 -0.74922 A 4.16666 4.16666 0 0 1  2.10097 -0.51477 A 5 5 0 0 1  2.62137 -0.16611 A 5.83333 5.83333 0 0 1  3.14218 0.32000 A 6.66666 6.66666 0 0 1  3.62809 0.96314 A 7.5 7.5 0 0 1  4.03487 1.77618 A 8.33333 8.33333 0 0 1  4.31022 2.76212 A 9.16666 9.16666 0 0 1  4.39535 3.91088 A 10 10 0 0 1  4.22751 5.19614 A 10.83333 10.83333 0 0 1  3.74355 6.57226 A 11.66666 11.66666 0 0 1  2.88483 7.97158 A 12.5 12.5 0 0 1  1.60365 9.30258 A 13.33333 13.33333 0 0 1  -0.12858 10.44954 A 14.16666 14.16666 0 0 1  -2.31174 11.27465 A 15 15 0 0 1  -4.90648 11.62348 A 15.83333 15.83333 0 0 1  -7.82391 11.33473 A 16.66666 16.66666 0 0 1  -10.91693 10.25483 A 17.5 17.5 0 0 1  -13.97531 8.25752 A 18.33333 18.33333 0 0 1  -16.72674 5.26786 A 19.16666 19.16666 0 0 1  -18.84648 1.28907 A 20 20 0 0 1  -19.97777 -3.57060 A 20.83333 20.83333 0 0 1  -19.76444 -9.07501 A 21.66666 21.66666 0 0 1  -17.89598 -14.84636 A 22.5 22.5 0 0 1  -14.16298 -20.36677 A 23.33333 23.33333 0 0 1  -8.51828 -25.00095 A 24.16666 24.16666 0 0 1  -1.13606 -28.04497 L 1.13606 -21.95502 A 23.33333 23.33333 0 0 0  -4.73763 -20.05331 A 22.5 22.5 0 0 0  -9.34739 -16.85173 A 21.66666 21.66666 0 0 0  -12.53654 -12.88883 A 20.83333 20.83333 0 0 0  -14.32267 -8.65449 A 20 20 0 0 0  -14.85185 -4.55052 A 19.16666 19.16666 0 0 0  -14.35088 -0.87188 A 18.33333 18.33333 0 0 0  -13.08383 2.19514 A 17.5 17.5 0 0 0  -11.31657 4.56268 A 16.66666 16.66666 0 0 0  -9.29117 6.22356 A 15.83333 15.83333 0 0 0  -7.20984 7.23041 A 15 15 0 0 0  -5.22746 7.67475 A 14.16666 14.16666 0 0 0  -3.45077 7.66824 A 13.33333 13.33333 0 0 0  -1.94243 7.32745 A 12.5 12.5 0 0 0  -0.72797 6.76246 A 11.66666 11.66666 0 0 0  0.19585 6.06942 A 10.83333 10.83333 0 0 0  0.85255 5.32647 A 10 10 0 0 0  1.27792 4.59239 A 9.16666 9.16666 0 0 0  1.51335 3.90749 A 8.33333 8.33333 0 0 0  1.60055 3.29593 A 7.5 7.5 0 0 0  1.57784 2.76890 A 6.66666 6.66666 0 0 0  1.47806 2.32817 A 5.83333 5.83333 0 0 0  1.32786 1.96940 A 5 5 0 0 0  1.14806 1.68486 A 4.16666 4.16666 0 0 0  0.95459 1.46531 A 3.33333 3.33333 0 0 0  0.75961 1.30114 A 2.5 2.5 0 0 0  0.57241 1.18292 A 1.66666 1.66666 0 0 0  0.40011 1.10163 A 3.33333 3.33333 0 0 0  0.24806 1.04890 A 2.5 2.5 0 0 0  0.12016 1.01713 A 0.83333 0.83333 0 0 0 0 0" id="0"></path><path visibility="inherit" stroke="transparent" fill="blue" d="M 0 0 A 0.83333 0.83333 0 0 1  0.78519 0.65763 A 1.66666 1.66666 0 0 1  0.64998 0.88260 A 1.66666 1.66666 0 0 1  0.45774 1.15073 A 2.5 2.5 0 0 1  0.19444 1.45075 A 3.33333 3.33333 0 0 1  -0.15487 1.76670 A 4.16666 4.16666 0 0 1  -0.60467 2.07688 A 5 5 0 0 1  -1.16682 2.35323 A 5.83333 5.83333 0 0 1  -1.84822 2.56121 A 6.66666 6.66666 0 0 1  -2.64815 2.66044 A 7.5 7.5 0 0 1  -3.55565 2.60621 A 8.33333 8.33333 0 0 1  -4.54718 2.35170 A 9.16666 9.16666 0 0 1  -5.58460 1.85104 A 10 10 0 0 1  -6.61375 1.06306 A 10.83333 10.83333 0 0 1  -7.56352 -0.04411 A 11.66666 11.66666 0 0 1  -8.34600 -1.48744 A 12.5 12.5 0 0 1  -8.85809 -3.26248 A 13.33333 13.33333 0 0 1  -8.98527 -5.33612 A 14.16666 14.16666 0 0 1  -8.60826 -7.63935 A 15 15 0 0 1  -7.61298 -10.06088 A 15.83333 15.83333 0 0 1  -5.90421 -12.44307 A 16.66666 16.66666 0 0 1  -3.42247 -14.58176 A 17.5 17.5 0 0 1  -0.16356 -16.23173 A 18.33333 18.33333 0 0 1  3.80126 -17.11971 A 19.16666 19.16666 0 0 1  8.30687 -16.96607 A 20 20 0 0 1  13.08112 -15.51595 A 20.83333 20.83333 0 0 1  17.74141 -12.57900 A 21.66666 21.66666 0 0 1  21.80532 -8.07519 A 22.5 22.5 0 0 1  24.71964 -2.08212 A 23.33333 23.33333 0 0 1  25.91060 5.12342 A 24.16666 24.16666 0 0 1  24.85569 13.03862 L 18.44557 11.96137 A 23.33333 23.33333 0 0 0  19.73550 5.92374 A 22.5 22.5 0 0 0  19.26773 0.33078 A 21.66666 21.66666 0 0 0  17.43032 -4.41255 A 20.83333 20.83333 0 0 0  14.65634 -8.07655 A 20 20 0 0 0  11.36679 -10.58681 A 19.16666 19.16666 0 0 0  7.93051 -11.99229 A 18.33333 18.33333 0 0 0  4.64086 -12.42850 A 17.5 17.5 0 0 0  1.70688 -12.08178 A 16.66666 16.66666 0 0 0  -0.74417 -11.15817 A 15.83333 15.83333 0 0 0  -2.65680 -9.85912 A 15 15 0 0 0  -4.03280 -8.36449 A 14.16666 14.16666 0 0 0  -4.91551 -6.82258 A 13.33333 13.33333 0 0 0  -5.37454 -5.34592 A 12.5 12.5 0 0 0  -5.49247 -4.01167 A 11.66666 11.66666 0 0 0  -5.35420 -2.86509 A 10.83333 10.83333 0 0 0  -5.03913 -1.92490 A 10 10 0 0 0  -4.61608 -1.18948 A 9.16666 9.16666 0 0 0  -4.14066 -0.64314 A 8.33333 8.33333 0 0 0  -3.65464 -0.26184 A 7.5 7.5 0 0 0  -3.18686 -0.01800 A 6.66666 6.66666 0 0 0  -2.75529 0.11595 A 5.83333 5.83333 0 0 0  -2.36948 0.16525 A 5 5 0 0 0  -2.03316 0.15181 A 4.16666 4.16666 0 0 0  -1.74629 0.09404 A 3.33333 3.33333 0 0 0  -1.50663 0.00726 A 2.5 2.5 0 0 0  -1.31064 -0.09573 A 1.66666 1.66666 0 0 0  -1.15410 -0.20431 A 3.33333 3.33333 0 0 0  -1.03240 -0.30961 A 2.5 2.5 0 0 0  -0.94095 -0.40450 A 0.83333 0.83333 0 0 0 0 0" id="1"></path><path visibility="inherit" stroke="transparent" fill="blue" d="M 0 0 A 0.83333 0.83333 0 0 1  -0.96212 0.35117 A 1.66666 1.66666 0 0 1  -1.08935 0.12159 A 1.66666 1.66666 0 0 1  -1.22543 -0.17894 A 2.5 2.5 0 0 1  -1.35361 -0.55697 A 3.33333 3.33333 0 0 1  -1.45257 -1.01748 A 4.16666 4.16666 0 0 1  -1.49629 -1.56210 A 5 5 0 0 1  -1.45454 -2.18711 A 5.83333 5.83333 0 0 1  -1.29396 -2.88121 A 6.66666 6.66666 0 0 1  -0.97993 -3.62359 A 7.5 7.5 0 0 1  -0.47921 -4.38239 A 8.33333 8.33333 0 0 1  0.23695 -5.11382 A 9.16666 9.16666 0 0 1  1.18925 -5.76193 A 10 10 0 0 1  2.38623 -6.25920 A 10.83333 10.83333 0 0 1  3.81996 -6.52814 A 11.66666 11.66666 0 0 1  5.46117 -6.48413 A 12.5 12.5 0 0 1  7.25444 -6.04009 A 13.33333 13.33333 0 0 1  9.11386 -5.11341 A 14.16666 14.16666 0 0 1  10.92000 -3.63529 A 15 15 0 0 1  12.51947 -1.56259 A 15.83333 15.83333 0 0 1  13.72812 1.10834 A 16.66666 16.66666 0 0 1  14.33941 4.32692 A 17.5 17.5 0 0 1  14.13888 7.97421 A 18.33333 18.33333 0 0 1  12.92547 11.85185 A 19.16666 19.16666 0 0 1  10.53961 15.67700 A 20 20 0 0 1  6.89664 19.08656 A 20.83333 20.83333 0 0 1  2.02302 21.65402 A 21.66666 21.66666 0 0 1  -3.90933 22.92156 A 22.5 22.5 0 0 1  -10.55665 22.44889 A 23.33333 23.33333 0 0 1  -17.39232 19.87752 A 24.16666 24.16666 0 0 1  -23.71962 15.00634 L -19.58164 9.99365 A 23.33333 23.33333 0 0 0  -14.99786 14.12957 A 22.5 22.5 0 0 0  -9.92033 16.52095 A 21.66666 21.66666 0 0 0  -4.89378 17.30138 A 20.83333 20.83333 0 0 0  -0.33367 16.73104 A 20 20 0 0 0  3.48505 15.13734 A 19.16666 19.16666 0 0 0  6.42037 12.86417 A 18.33333 18.33333 0 0 0  8.44297 10.23335 A 17.5 17.5 0 0 0  9.60969 7.51910 A 16.66666 16.66666 0 0 0  10.03535 4.93461 A 15.83333 15.83333 0 0 0  9.86665 2.62870 A 15 15 0 0 0  9.26026 0.68973 A 14.16666 14.16666 0 0 0  8.36628 -0.84566 A 13.33333 13.33333 0 0 0  7.31697 -1.98152 A 12.5 12.5 0 0 0  6.22045 -2.75078 A 11.66666 11.66666 0 0 0  5.15835 -3.20433 A 10.83333 10.83333 0 0 0  4.18658 -3.40157 A 10 10 0 0 0  3.33816 -3.40290 A 9.16666 9.16666 0 0 0  2.62731 -3.26435 A 8.33333 8.33333 0 0 0  2.05408 -3.03409 A 7.5 7.5 0 0 0  1.60902 -2.75090 A 6.66666 6.66666 0 0 0  1.27722 -2.44413 A 5.83333 5.83333 0 0 0  1.04162 -2.13466 A 5 5 0 0 0  0.88510 -1.83668 A 4.16666 4.16666 0 0 0  0.79170 -1.55935 A 3.33333 3.33333 0 0 0  0.74701 -1.30841 A 2.5 2.5 0 0 0  0.73823 -1.08718 A 1.66666 1.66666 0 0 0  0.75398 -0.89732 A 3.33333 3.33333 0 0 0  0.78434 -0.73928 A 2.5 2.5 0 0 0  0.82078 -0.61263 A 0.83333 0.83333 0 0 0 0 0" id="2"></path>
</g>

</g>
<g id="arrow" transform="translate(69.30033 -26.5149)">
<line visibility="inherit" stroke="black" stroke-width="2" x1="-51.24890450438474" y1="-19.167947838682146" x2="-16.966679504666253" y2="20.467568599358344" id="shaft"></line><g id="arrow_head" transform="translate(0 0)">
<path visibility="inherit" stroke="black" stroke-width="2" stroke-linecap="round" fill="transparent" d="M -20.48316 10.28747 C -20.44622 13.69315, -19.74293 15.72917, -16.96667 20.467568599358344M -16.96667 20.46756 C -21.25560 17.03753, -23.16903 16.04821, -26.53385 15.52093 " id="curve"></path>
</g>

</g>
<g id="arrow1" transform="translate(-7.27767 -17.18397)">
<line visibility="inherit" stroke="black" stroke-width="2" x1="7.051715789322121" y1="-21.219271205026743" x2="8.175427283338294" y2="3.761713611727263" id="shaft"></line><g id="arrow1_head" transform="translate(0 0)">
<path visibility="inherit" stroke="black" stroke-width="2" stroke-linecap="round" fill="transparent" d="M 11.72201 -6.40793 C 9.64107 -3.71169, 8.93175 -1.67776, 8.17542 3.761713611727263M 8.17542 3.76171 C 6.93377 -1.58789, 6.04471 -3.54992, 3.73009 -6.04843 " id="curve"></path>
</g>

</g>
<g id="arrow2" transform="translate(-72.5942 -9.46182)">
<line visibility="inherit" stroke="black" stroke-width="2" x1="51.2385223526796" y1="-36.357054154180645" x2="20.78284078887235" y2="-1.386015606031492" id="shaft"></line><g id="arrow2_head" transform="translate(0 0)">
<path visibility="inherit" stroke="black" stroke-width="2" stroke-linecap="round" fill="transparent" d="M 30.36673 -6.30017 C 27.00015 -5.78431, 25.08337 -4.80148, 20.78284 -1.386015606031492M 20.78284 -1.38601 C 23.57514 -6.11497, 24.28534 -8.14859, 24.33383 -11.55412 " id="curve"></path>
</g>

</g>
<g id="shadedCircle1" transform="translate(-74.47282 16.70138)">
<g id="shadedCircle1_borderProperties" >

</g>
<g id="shadedCircle1_border" >
<defs gradient="[object Object]" id="defs"><radialGradient visibility="inherit" r="0.5" fx="0.5" fy="0.5" id="g16"><stop visibility="inherit" offset="0" stop-color="red" stop-opacity="0" id="stop0"></stop><stop visibility="inherit" offset="0.7" stop-color="red" stop-opacity="0.1" id="stop1"></stop><stop visibility="inherit" offset="1" stop-color="red" stop-opacity="1" id="stop2"></stop></radialGradient></defs><circle visibility="inherit" fill="url(#g16)" r="31.998315045566695" id="__contents"></circle>
</g>

</g>
<g id="shadedCircle2" transform="translate(2.38368 21.24451)">
<g id="shadedCircle2_borderProperties" >

</g>
<g id="shadedCircle2_border" >
<defs gradient="[object Object]" id="defs"><radialGradient visibility="inherit" r="0.5" fx="0.5" fy="0.5" id="g17"><stop visibility="inherit" offset="0" stop-color="red" stop-opacity="0" id="stop0"></stop><stop visibility="inherit" offset="0.7" stop-color="green" stop-opacity="0.1" id="stop1"></stop><stop visibility="inherit" offset="1" stop-color="green" stop-opacity="1" id="stop2"></stop></radialGradient></defs><circle visibility="inherit" fill="url(#g17)" r="32.17231269657817" id="__contents"></circle>
</g>

</g>
<g id="shadedCircle3" transform="translate(75.02492 20.21657)">
<g id="shadedCircle3_borderProperties" >

</g>
<g id="shadedCircle3_border" >
<defs gradient="[object Object]" id="defs"><radialGradient visibility="inherit" r="0.5" fx="0.5" fy="0.5" id="g18"><stop visibility="inherit" offset="0" stop-color="red" stop-opacity="0" id="stop0"></stop><stop visibility="inherit" offset="0.7" stop-color="blue" stop-opacity="0.1" id="stop1"></stop><stop visibility="inherit" offset="1" stop-color="blue" stop-opacity="1" id="stop2"></stop></radialGradient></defs><circle visibility="inherit" fill="url(#g18)" r="28.661825694391492" id="__contents"></circle>
</g>

</g>
<g id="shadedCircle4" transform="translate(-1.52734 -66.88168)">
<g id="shadedCircle4_borderProperties" >

</g>
<g id="shadedCircle4_border" >
<defs gradient="[object Object]" id="defs"><radialGradient visibility="inherit" r="0.5" fx="0.5" fy="0.5" id="g19"><stop visibility="inherit" offset="0" stop-color="red" stop-opacity="0" id="stop0"></stop><stop visibility="inherit" offset="0.7" stop-color="rgb(100,50,50)" stop-opacity="0.1" id="stop1"></stop><stop visibility="inherit" offset="1" stop-color="rgb(100,50,50)" stop-opacity="1" id="stop2"></stop></radialGradient></defs><circle visibility="inherit" fill="url(#g19)" r="28.77233900682665" id="__contents"></circle>
</g>

</g>
<g id="__resizeBoxes" transform="translate(0 0)">

</g>

</g>
</svg>