<svg id="svg" baseProfile="full" xmlns="http://www.w3.org/2000/svg" xmlns:xlink="http://www.w3.org/1999/xlink" version="1.1" style = "background:white" viewBox="0 0 400 263.4642579269083">
<g id="outerG" transform = "translate(214.93543107804163 173.35085708089446)scale(1.4652316029995034)">
<g id="prototypes" >

</g>
<g id="spiral" transform="translate(-15.86064823338243 -75.98361030953829)">
<g id="spiral_connectedEdges" >

</g>
<g id="spiral_spokes" >
<path visibility="inherit" fill="black" d="M 0 0 A 0.8333333333333334 0.8333333333333334 0 0 1  0.19070486809588066 -0.9980715143988246 A 1.6666666666666667 1.6666666666666667 0 0 1  0.4833494737437557 -0.9687581119546774 A 1.6666666666666667 1.6666666666666667 0 0 1  0.8445380524401687 -0.8883810716454205 A 2.5 2.5 0 0 1  1.2631743937802071 -0.7290487535634882 A 3.3333333333333335 3.3333333333333335 0 0 1  1.718877141036346 -0.46045191614925735 A 4.166666666666667 4.166666666666667 0 0 1  2.17954717618795 -0.05347436596247657 A 5 5 0 0 1  2.6002132480097306 0.514999483538133 A 5.833333333333334 5.833333333333334 0 0 1  2.923655990255873 1.256723156622146 A 6.666666666666667 6.666666666666667 0 0 1  3.0827787949507246 2.166846215023933 A 7.5 7.5 0 0 1  3.004447772224128 3.219036284632643 A 8.333333333333334 8.333333333333334 0 0 1  2.614884301650166 4.360844529258886 A 9.166666666666668 9.166666666666668 0 0 1  1.8473063851196494 5.509450232394339 A 10 10 0 0 1  0.6527237644521409 6.548757978237431 A 10.833333333333334 10.833333333333334 0 0 1  -0.9857042104144238 7.329744009798363 A 11.666666666666668 11.666666666666668 0 0 1  -3.0354095093710622 7.676524305026973 A 12.5 12.5 0 0 1  -5.396321021376935 7.400651575310495 A 13.333333333333334 13.333333333333334 0 0 1  -7.885552603243019 6.32553248459811 A 14.166666666666668 14.166666666666668 0 0 1  -10.22998349405269 4.321444649094886 A 15 15 0 0 1  -12.072922943038705 1.3492831380859447 A 15.833333333333334 15.833333333333334 0 0 1  -13.00118369989329 -2.492125586370444 A 16.666666666666668 16.666666666666668 0 0 1  -12.597399898943952 -6.924243787839385 A 17.5 17.5 0 0 1  -10.518663766071395 -11.465533472811932 A 18.333333333333336 18.333333333333336 0 0 1  -6.596157018059443 -15.442147616198177 A 19.166666666666668 19.166666666666668 0 0 1  -0.9416865934504575 -18.047626253817885 A 20 20 0 0 1  5.9628203962352755 -18.461345984849984 A 20.833333333333336 20.833333333333336 0 0 1  13.225198710074357 -16.024008345507333 A 21.666666666666668 21.666666666666668 0 0 1  19.58779028602865 -10.450713216148744 A 22.5 22.5 0 0 1  23.586035043872666 -2.0403099975161827 A 23.333333333333336 23.333333333333336 0 0 1  22.008131983911596 8.188030377978748 A 24.166666666666668 24.166666666666668 0 0 1  17.677669529663692 17.677669529663685 L 17.677669529663692 17.677669529663685 A 23.333333333333336 23.333333333333336 0 0 0  22.008131983911596 8.188030377978748 A 22.5 22.5 0 0 0  20.35778647426373 -0.5858278063488912 A 21.666666666666668 21.666666666666668 0 0 0  17.266741801670022 -7.9102260189990465 A 20.833333333333336 20.833333333333336 0 0 0  12.093203862703325 -12.876608458578206 A 20 20 0 0 0  6.085670888278133 -15.21193134634833 A 19.166666666666668 19.166666666666668 0 0 0  0.31591839489887996 -15.146475845224966 A 18.333333333333336 18.333333333333336 0 0 0  -4.457987569509037 -13.23141045025421 A 17.5 17.5 0 0 0  -7.8289674997644205 -10.153947506090441 A 16.666666666666668 16.666666666666668 0 0 0  -9.704454858943834 -6.5862299032670055 A 15.833333333333334 15.833333333333334 0 0 0  -10.227653287384541 -3.0846247724095153 A 15 15 0 0 0  -9.68496754128628 -0.040429335303273195 A 14.166666666666668 14.166666666666668 0 0 0  -8.420434459981365 2.327007060878213 A 13.333333333333334 13.333333333333334 0 0 0  -6.769168331373905 3.948206737326169 A 12.5 12.5 0 0 0  -5.014090449207008 4.866201268518137 A 11.666666666666668 11.666666666666668 0 0 0  -3.3646470502325414 5.195146178398046 A 10.833333333333334 10.833333333333334 0 0 0  -1.9530409209714161 5.08266810806254 A 10 10 0 0 0  -0.8423545929998444 4.680196480450345 A 9.166666666666668 9.166666666666668 0 0 0  -0.04122078920878214 4.122686333302979 A 8.333333333333334 8.333333333333334 0 0 0  0.4792367784634177 3.5172155025670677 A 7.5 7.5 0 0 0  0.7691529729466133 2.9389204579246915 A 6.666666666666667 6.666666666666667 0 0 0  0.8861493659744824 2.432418318943957 A 5.833333333333334 5.833333333333334 0 0 0  0.8850060731941529 2.0169306637778224 A 5 5 0 0 0  0.8112342190653994 1.6934431986751157 A 4.166666666666667 4.166666666666667 0 0 0  0.6985496288244373 1.4522448192454616 A 3.3333333333333335 3.3333333333333335 0 0 0  0.5695980173946074 1.2792814209220142 A 2.5 2.5 0 0 0  0.438590346883942 1.1602935518790811 A 1.6666666666666667 1.6666666666666667 0 0 0  0.3142882424773346 1.0826659609388807 A 3.3333333333333335 3.3333333333333335 0 0 0  0.20227504777614555 1.0357425633234414 A 2.5 2.5 0 0 0  0.10625500796822573 1.0105567613209574 A 0.8333333333333334 0.8333333333333334 0 0 0 0 0" id="0"></path><path visibility="inherit" fill="black" d="M 0 0 A 0.8333333333333334 0.8333333333333334 0 0 1  0.7690028522150483 0.6641910175958051 A 1.6666666666666667 1.6666666666666667 0 0 1  0.5972943982031218 0.9029719791452708 A 1.6666666666666667 1.6666666666666667 0 0 1  0.34709155006609327 1.1755819436985306 A 2.5 2.5 0 0 1  -0.0002124557067417765 1.4584654912054116 A 3.3333333333333335 3.3333333333333335 0 0 1  -0.46067551391169426 1.7188172281964718 A 4.166666666666667 4.166666666666667 0 0 1  -1.0434634287192028 1.914280406306641 A 5 5 0 0 1  -1.7461092596847538 1.994350986264208 A 5.833333333333334 5.833333333333334 0 0 1  -2.5501821742868844 1.9035987811770627 A 6.666666666666667 6.666666666666667 0 0 1  -3.4179332657802464 1.5863416431633408 A 7.5 7.5 0 0 1  -4.289991084307807 0.9924099527733384 A 8.333333333333334 8.333333333333334 0 0 1  -5.08404429511767 0.0841339685567325 A 9.166666666666668 9.166666666666668 0 0 1  -5.694977054699401 -1.154910858110351 A 10 10 0 0 1  -5.997752654615706 -2.70910362744935 A 10.833333333333334 10.833333333333334 0 0 1  -5.854892410514987 -4.518516891735353 A 11.666666666666668 11.666666666666668 0 0 1  -5.130360306236512 -6.467003898517684 A 12.5 12.5 0 0 1  -3.7109917580877436 -8.373676879143664 A 13.333333333333334 13.333333333333334 0 0 1  -1.5352955225041613 -9.99185511958602 A 14.166666666666668 14.166666666666668 0 0 1  1.3725108998618365 -11.020147910692566 A 15 15 0 0 1  4.86794799703893 -11.130099535646481 A 15.833333333333334 15.833333333333334 0 0 1  8.658835917164636 -10.01329257019053 A 16.666666666666668 16.666666666666668 0 0 1  12.29527097173747 -7.447546440197293 A 17.5 17.5 0 0 1  15.188775138431646 -3.3766632988787677 A 18.333333333333336 18.333333333333336 0 0 1  16.671370633646657 2.00863426310859 A 19.166666666666668 19.166666666666668 0 0 1  16.100546110538502 8.208288614577608 A 20 20 0 0 1  13.006584412816293 14.394626933768736 A 20.833333333333336 20.833333333333336 0 0 1  7.2645989426260345 19.465362225775245 A 21.666666666666668 21.666666666666668 0 0 1  -0.7433120101637238 22.188880599777235 A 22.5 22.5 0 0 1  -10.026057232491938 21.44626052130184 A 23.333333333333336 23.333333333333336 0 0 1  -18.0951083062441 14.965586198918881 A 24.166666666666668 24.166666666666668 0 0 1  -24.148145657226706 6.47047612756302 L -24.148145657226706 6.47047612756302 A 23.333333333333336 23.333333333333336 0 0 0  -18.0951083062441 14.965586198918881 A 22.5 22.5 0 0 0  -9.671551474590403 17.923274154706082 A 21.666666666666668 21.666666666666668 0 0 0  -1.7829142187051754 18.90855005033245 A 20.833333333333336 20.833333333333336 0 0 0  5.104868108362656 16.911325987534276 A 20 20 0 0 0  10.131083542423402 12.876311261494441 A 19.166666666666668 19.166666666666668 0 0 0  12.959273662322763 7.846831278117709 A 18.333333333333336 18.333333333333336 0 0 0  13.687731362573565 2.7549747401770235 A 17.5 17.5 0 0 0  12.708060238850178 -1.7031109871535177 A 16.666666666666668 16.666666666666668 0 0 0  10.55606984086587 -5.11118948609119 A 15.833333333333334 15.833333333333334 0 0 0  7.785190057741703 -7.315095181769685 A 15 15 0 0 0  4.8774966020738875 -8.367213257929999 A 14.166666666666668 14.166666666666668 0 0 0  2.1949700004843824 -8.455813683684871 A 13.333333333333334 13.333333333333334 0 0 0  -0.03466316823038895 -7.836375106126006 A 12.5 12.5 0 0 0  -1.7072086938612614 -6.775430340145264 A 11.666666666666668 11.666666666666668 0 0 0  -2.816805041750081 -5.511442909468779 A 10.833333333333334 10.833333333333334 0 0 0  -3.4251992401014424 -4.232717106223071 A 10 10 0 0 0  -3.631991750272597 -3.069598716757538 A 9.166666666666668 9.166666666666668 0 0 0  -3.549740701870909 -2.097041417270338 A 8.333333333333334 8.333333333333334 0 0 0  -3.2856163650392403 -1.3435765267063973 A 7.5 7.5 0 0 0  -2.929756262737886 -0.8033542149942526 A 6.666666666666667 6.666666666666667 0 0 0  -2.549610739823347 -0.44878129699060276 A 5.833333333333334 5.833333333333334 0 0 0  -2.1892162291004804 -0.24202758999926355 A 5 5 0 0 0  -1.8721819394513282 -0.14417215720769117 A 4.166666666666667 4.166666666666667 0 0 0  -1.6069557203931297 -0.12116068525657708 A 3.3333333333333335 3.3333333333333335 0 0 0  -1.392689217805221 -0.14635435745202674 A 2.5 2.5 0 0 0  -1.2241388652165328 -0.20031639368341758 A 1.6666666666666667 1.6666666666666667 0 0 0  -1.0947603472244287 -0.26915137837330494 A 3.3333333333333335 3.3333333333333335 0 0 0  -0.9981168955069855 -0.3426959517358678 A 2.5 2.5 0 0 0  -0.92829533125419 -0.41325884448067696 A 0.8333333333333334 0.8333333333333334 0 0 0 0 0" id="1"></path><path visibility="inherit" fill="black" d="M 0 0 A 0.8333333333333334 0.8333333333333334 0 0 1  -0.9597077203109283 0.3338804968030197 A 1.6666666666666667 1.6666666666666667 0 0 1  -1.080643871946878 0.06578613280940693 A 1.6666666666666667 1.6666666666666667 0 0 1  -1.191629602506262 -0.2872008720531096 A 2.5 2.5 0 0 1  -1.2629619380734656 -0.7294167376419214 A 3.3333333333333335 3.3333333333333335 0 0 1  -1.2582016271246528 -1.2583653120472138 A 4.166666666666667 4.166666666666667 0 0 1  -1.1360837474687455 -1.8608060403441653 A 5 5 0 0 1  -0.8541039883249761 -2.50935046980234 A 5.833333333333334 5.833333333333334 0 0 1  -0.3734738159689884 -3.1603219377992082 A 6.666666666666667 6.666666666666667 0 0 1  0.33515447082951666 -3.7531878581872715 A 7.5 7.5 0 0 1  1.2855433120836803 -4.21144623740598 A 8.333333333333334 8.333333333333334 0 0 1  2.4691599934675006 -4.444978497815619 A 9.166666666666668 9.166666666666668 0 0 1  3.847670669579749 -4.354539374283987 A 10 10 0 0 1  5.345028890163564 -3.8396543507880794 A 10.833333333333334 10.833333333333334 0 0 1  6.840596620929408 -2.811227118063013 A 11.666666666666668 11.666666666666668 0 0 1  8.165769815607574 -1.2095204065092868 A 12.5 12.5 0 0 1  9.107312779464682 0.9730253038331635 A 13.333333333333334 13.333333333333334 0 0 1  9.420848125747172 3.6663226349879063 A 14.166666666666668 14.166666666666668 0 0 1  8.857472594190849 6.698703261597675 A 15 15 0 0 1  7.204974945999771 9.780816397560532 A 15.833333333333334 15.833333333333334 0 0 1  4.34234778272865 12.505418156560971 A 16.666666666666668 16.666666666666668 0 0 1  0.30212892720649437 14.371790228036675 A 17.5 17.5 0 0 1  -4.670111372360232 14.842196771690697 A 18.333333333333336 18.333333333333336 0 0 1  -10.075213615587195 13.433513353089591 A 19.166666666666668 19.166666666666668 0 0 1  -15.158859517088029 9.83933763924029 A 20 20 0 0 1  -18.96940480905157 4.06671905108126 A 20.833333333333336 20.833333333333336 0 0 1  -20.48979765270038 -3.441353880267926 A 21.666666666666668 21.666666666666668 0 0 1  -18.844478275864923 -11.738167383628467 A 22.5 22.5 0 0 1  -13.559977811380701 -19.40595052378566 A 23.333333333333336 23.333333333333336 0 0 1  -3.9130236776675145 -23.153616576897633 A 24.166666666666668 24.166666666666668 0 0 1  6.470476127563002 -24.14814565722671 L 6.470476127563002 -24.14814565722671 A 23.333333333333336 23.333333333333336 0 0 0  -3.9130236776675145 -23.153616576897633 A 22.5 22.5 0 0 0  -10.686234999673307 -17.337446348357187 A 21.666666666666668 21.666666666666668 0 0 0  -15.483827582964848 -10.99832403133338 A 20.833333333333336 20.833333333333336 0 0 0  -17.198071971065968 -4.034717528956084 A 20 20 0 0 0  -16.21675443070154 2.335620084853899 A 19.166666666666668 19.166666666666668 0 0 0  -13.27519205722163 7.299644567107268 A 18.333333333333336 18.333333333333336 0 0 0  -9.229743793064511 10.47643571007719 A 17.5 17.5 0 0 0  -4.879092739085742 11.857058493243956 A 16.666666666666668 16.666666666666668 0 0 0  -0.8516149819220253 11.697419389358194 A 15.833333333333334 15.833333333333334 0 0 0  2.442463229642838 10.399719954179197 A 15 15 0 0 0  4.80747093921239 8.407642593233266 A 14.166666666666668 14.166666666666668 0 0 0  6.225464459496981 6.128806622806655 A 13.333333333333334 13.333333333333334 0 0 0  6.80383149960429 3.8881683687998323 A 12.5 12.5 0 0 0  6.72129914306827 1.9092290716271256 A 11.666666666666668 11.666666666666668 0 0 0  6.181452091982621 0.316296731070733 A 10.833333333333334 10.833333333333334 0 0 0  5.378240161072859 -0.849951001839469 A 10 10 0 0 0  4.4743463432724395 -1.6105977636928066 A 9.166666666666668 9.166666666666668 0 0 0  3.590961491079689 -2.0256449160326424 A 8.333333333333334 8.333333333333334 0 0 0  2.806379586575823 -2.17363897586067 A 7.5 7.5 0 0 0  2.1606032897912693 -2.1355662429304374 A 6.666666666666667 6.666666666666667 0 0 0  1.6634613738488648 -1.9836370219533568 A 5.833333333333334 5.833333333333334 0 0 0  1.304210155906328 -1.774903073778558 A 5 5 0 0 0  1.0609477203859285 -1.5492710414674236 A 4.166666666666667 4.166666666666667 0 0 0  0.9084060915686909 -1.3310841339888826 A 3.3333333333333335 3.3333333333333335 0 0 0  0.8230912004106132 -1.1329270634699875 A 2.5 2.5 0 0 0  0.7855485183325899 -0.9599771581956649 A 1.6666666666666667 1.6666666666666667 0 0 0  0.7804721047470938 -0.8135145825655759 A 3.3333333333333335 3.3333333333333335 0 0 0  0.7958418477308401 -0.6930466115875739 A 2.5 2.5 0 0 0  0.8220403232859634 -0.5972979168402807 A 0.8333333333333334 0.8333333333333334 0 0 0 0 0" id="2"></path>
</g>

</g>
<g id="__resizeBoxes" transform="translate(70.81967963547005 13.770488051117443)">

</g>
<g id="spiral1" transform="translate(-16.44349855848765 12.557584708393328)">
<g id="spiral1_connectedEdges" >

</g>
<g id="spiral1_spokes" >
<path visibility="inherit" fill="green" d="M 0 0 A 0.8333333333333334 0.8333333333333334 0 0 1  0.15220261740894162 -0.42673444681908174 A 1.6666666666666667 1.6666666666666667 0 0 1  0.35825745405988196 -0.4909353958180183 A 1.6666666666666667 1.6666666666666667 0 0 1  0.6179624202374477 -0.5641913208497666 A 2.5 2.5 0 0 1  0.9336262785021401 -0.642125707799864 A 3.3333333333333335 3.3333333333333335 0 0 1  1.3078136618239213 -0.719298028645156 A 4.166666666666667 4.166666666666667 0 0 1  1.743206635873351 -0.7890997793647939 A 5 5 0 0 1  2.242426592032817 -0.8436458870644741 A 5.833333333333334 5.833333333333334 0 0 1  2.807810431306096 -0.8736704937477516 A 6.666666666666667 6.666666666666667 0 0 1  3.441136093005928 -0.8684390206455611 A 7.5 7.5 0 0 1  4.143294786001992 -0.815691386152394 A 8.333333333333334 8.333333333333334 0 0 1  4.913910982155057 -0.7016338312793342 A 9.166666666666668 9.166666666666668 0 0 1  5.7509163258002225 -0.5109983841942527 A 10 10 0 0 1  6.650089792471431 -0.22718888863200482 A 10.833333333333334 10.833333333333334 0 0 1  7.604583019289885 0.16746985519738233 A 11.666666666666668 11.666666666666668 0 0 1  8.604455716608648 0.6913682072353087 A 12.5 12.5 0 0 1  9.636250276781766 1.3631286496785098 A 13.333333333333334 13.333333333333334 0 0 1  10.68263607900889 2.201007841547421 A 14.166666666666668 14.166666666666668 0 0 1  11.722152003777778 3.2221967368471494 A 15 15 0 0 1  12.729070547166714 4.442038952591728 A 15.833333333333334 15.833333333333334 0 0 1  13.67339972280168 5.873191973769338 A 16.666666666666668 16.666666666666668 0 0 1  14.521031297518714 7.524756775796325 A 17.5 17.5 0 0 1  15.2340375629574 9.40139937916408 A 18.333333333333336 18.333333333333336 0 0 1  15.771115094409875 11.502483917489174 A 19.166666666666668 19.166666666666668 0 0 1  16.088173263992715 13.821232646489076 A 20 20 0 0 1  16.139067229565473 16.343925537928605 A 20.833333333333336 20.833333333333336 0 0 1  15.876478598515725 19.049151789685723 A 21.666666666666668 21.666666666666668 0 0 1  15.252950547455562 21.907128138798676 A 22.5 22.5 0 0 1  14.22208652659872 24.879104016260268 A 23.333333333333336 23.333333333333336 0 0 1  12.739921793634572 27.916880587277085 A 24.166666666666668 24.166666666666668 0 0 1  10.76647434383053 30.962478617021134 L -2.9447510918189836 18.421938412735756 A 23.333333333333336 23.333333333333336 0 0 0  -1.4431593636536109 17.668095207039983 A 22.5 22.5 0 0 0  -0.11963512029006207 16.823137095164657 A 21.666666666666668 21.666666666666668 0 0 0  1.0313253793000223 15.910896433371787 A 20.833333333333336 20.833333333333336 0 0 0  2.0170266791150384 14.952166263784308 A 20 20 0 0 0  2.845979524312816 13.964880908545748 A 19.166666666666668 19.166666666666668 0 0 0  3.5274156179098126 12.96437305538337 A 18.333333333333336 18.333333333333336 0 0 0  4.070916829495485 11.963679251716973 A 17.5 17.5 0 0 0  4.486158139700465 10.973865338455465 A 16.666666666666668 16.666666666666668 0 0 0  4.7827570835866995 10.00434414631316 A 15.833333333333334 15.833333333333334 0 0 0  4.970215563613977 9.06316037202806 A 15 15 0 0 0  5.057933392180206 8.157222433164003 A 14.166666666666668 14.166666666666668 0 0 0  5.055267883952377 7.292468351057304 A 13.333333333333334 13.333333333333334 0 0 0  4.971611424421947 6.473961805254477 A 12.5 12.5 0 0 0  4.816460078286547 5.705924262240703 A 11.666666666666668 11.666666666666668 0 0 0  4.599451186467175 4.991717881757768 A 10.833333333333334 10.833333333333334 0 0 0  4.330355872072921 4.333800097860278 A 10 10 0 0 0  4.019021975082446 3.733673193154577 A 9.166666666666668 9.166666666666668 0 0 0  3.6752722874278962 3.1918505300330646 A 8.333333333333334 8.333333333333334 0 0 0  3.3087703106317594 2.7078560225409376 A 7.5 7.5 0 0 0  2.9288699573774277 2.28026629706054 A 6.666666666666667 6.666666666666667 0 0 0  2.544466365361995 1.90679744160621 A 5.833333333333334 5.833333333333334 0 0 0  2.163862779948628 1.5844317264235737 A 5 5 0 0 0  1.794664298001527 1.3095751164934464 A 4.166666666666667 4.166666666666667 0 0 0  1.4437043054899383 1.0782340938605877 A 3.3333333333333335 3.3333333333333335 0 0 0  1.1170046870403527 0.8862000467668978 A 2.5 2.5 0 0 0  0.8197670100065397 0.7292307274869824 A 1.6666666666666667 1.6666666666666667 0 0 0  0.5563892015348818 0.6032203925873763 A 3.3333333333333335 3.3333333333333335 0 0 0  0.3305007610116595 0.5043526386805518 A 2.5 2.5 0 0 0  0.14500910948461085 0.4292322017446973 A 0.8333333333333334 0.8333333333333334 0 0 0 0 0" id="0"></path><path visibility="inherit" fill="green" d="M 0 0 A 0.8333333333333334 0.8333333333333334 0 0 1  0.2934615629107537 0.34517855660816793 A 1.6666666666666667 1.6666666666666667 0 0 1  0.2460337973654318 0.5557277542200032 A 1.6666666666666667 1.6666666666666667 0 0 1  0.17962280633187117 0.817266814934628 A 2.5 2.5 0 0 1  0.08928403612667624 1.1296069287235104 A 3.3333333333333335 3.3333333333333335 0 0 1  -0.03097646521318842 1.492248868878445 A 4.166666666666667 4.166666666666667 0 0 1  -0.18822286288606793 1.9042111203943286 A 5 5 0 0 1  -0.3905945260203154 2.3638213383544198 A 5.833333333333334 5.833333333333334 0 0 1  -0.6472843735306004 2.8684704093958966 A 6.666666666666667 6.666666666666667 0 0 1  -0.9684777929862297 3.414330784745446 A 7.5 7.5 0 0 1  -1.3652379309448812 3.9960442331215327 A 8.333333333333334 8.333333333333334 0 0 1  -1.8493227690350154 4.606388658121286 A 9.166666666666668 9.166666666666668 0 0 1  -2.432920580895085 5.235938825278785 A 10 10 0 0 1  -3.1282935472228517 5.87274114204385 A 10.833333333333334 10.833333333333334 0 0 1  -3.947324658613973 6.502027152294116 A 11.666666666666668 11.666666666666668 0 0 1  -4.900970289139 7.105993132703672 A 12.5 12.5 0 0 1  -5.998629177638849 7.663673212078583 A 13.333333333333334 13.333333333333334 0 0 1  -7.247446744213267 8.150930303032178 A 14.166666666666668 14.166666666666668 0 0 1  -8.651580231989836 8.540583053870643 A 15 15 0 0 1  -10.21145385112781 8.802678984114799 A 15.833333333333334 15.833333333333334 0 0 1  -11.923033311987965 8.904915529160684 A 16.666666666666668 16.666666666666668 0 0 1  -13.77714617389805 8.813203604901958 A 17.5 17.5 0 0 1  -15.758869474958045 8.49236384214545 A 18.333333333333336 18.333333333333336 0 0 1  -17.847000826372497 7.906944359022592 A 19.166666666666668 19.166666666666668 0 0 1  -20.013625215470718 7.022150423858778 A 20 20 0 0 1  -22.223788328190164 5.804879445224336 A 20.833333333333336 20.833333333333336 0 0 1  -24.4352886696715 4.224857894111722 A 21.666666666666668 21.666666666666668 0 0 1  -26.598604765888343 2.2558785873649425 A 22.5 22.5 0 0 1  -28.656979364776205 -0.12286378127523978 A 23.333333333333336 23.333333333333336 0 0 1  -30.546688679815883 -2.925344378123998 A 24.166666666666668 24.166666666666668 0 0 1  -32.19753021838804 -6.1571990175599165 L -14.481491106472058 -11.761198459705083 A 23.333333333333336 23.333333333333336 0 0 0  -14.579439603951894 -10.083860274153388 A 22.5 22.5 0 0 0  -14.509446535615913 -8.515175600938331 A 21.666666666666668 21.666666666666668 0 0 0  -14.294903197933198 -7.062294238644449 A 20.833333333333336 20.833333333333336 0 0 0  -13.957469165603385 -5.7292867876675615 A 20 20 0 0 0  -13.51693138978133 -4.517749887567612 A 19.166666666666668 19.166666666666668 0 0 0  -12.991184219055391 -3.4273549928758014 A 18.333333333333336 18.333333333333336 0 0 0  -12.396308569463454 -2.4563222348217906 A 17.5 17.5 0 0 0  -11.746725230662177 -1.6018057548527884 A 16.666666666666668 16.666666666666668 0 0 0  -11.055394720702697 -0.8601829386405235 A 15.833333333333334 15.833333333333334 0 0 0  -10.334034902555704 -0.22724724563953203 A 15 15 0 0 0  -9.59332854753044 0.30168759169565984 A 14.166666666666668 14.166666666666668 0 0 0  -8.843096790285834 0.7317562349097138 A 13.333333333333334 13.333333333333334 0 0 0  -8.092421098691512 1.0685608886671063 A 12.5 12.5 0 0 0  -7.3497054023137025 1.318214652989386 A 11.666666666666668 11.666666666666668 0 0 0  -6.6226800873608624 1.4873826300681698 A 10.833333333333334 10.833333333333334 0 0 0  -5.918358915706951 1.5832981437121303 A 10 10 0 0 0  -5.242966822242044 1.6137385322120164 A 9.166666666666668 9.166666666666668 0 0 0  -4.601859787805407 1.5869539017209706 A 8.333333333333334 8.333333333333334 0 0 0  -3.999457260627022 1.5115511330243672 A 7.5 7.5 0 0 0  -3.439203519336614 1.3963426389396276 A 6.666666666666667 6.666666666666667 0 0 0  -2.923568206983149 1.2501737906754393 A 5.833333333333334 5.833333333333334 0 0 0  -2.454089515619165 1.0817442745273431 A 5 5 0 0 0  -2.0314574680480537 0.8994373150875664 A 4.166666666666667 4.166666666666667 0 0 0  -1.6556302692547327 0.7111675571769627 A 3.3333333333333335 3.3333333333333335 0 0 0  -1.3259740968552673 0.5242544117397834 A 2.5 2.5 0 0 0  -1.0414158402272036 0.34532369210658487 A 1.6666666666666667 1.6666666666666667 0 0 0  -0.8005987848289311 0.18023698662685927 A 3.3333333333333335 3.3333333333333335 0 0 0  -0.6020325780689018 0.034045735665911014 A 2.5 2.5 0 0 0  -0.4442305455755406 -0.0890345282785166 A 0.8333333333333334 0.8333333333333334 0 0 0 0 0" id="1"></path><path visibility="inherit" fill="green" d="M 0 0 A 0.8333333333333334 0.8333333333333334 0 0 1  -0.4456641803196951 0.08155589021091403 A 1.6666666666666667 1.6666666666666667 0 0 1  -0.6042912514253135 -0.0647923584019846 A 1.6666666666666667 1.6666666666666667 0 0 1  -0.797585226569319 -0.2530754940848607 A 2.5 2.5 0 0 1  -1.022910314628816 -0.48748122092364704 A 3.3333333333333335 3.3333333333333335 0 0 1  -1.2768371966107328 -0.7729508402332876 A 4.166666666666667 4.166666666666667 0 0 1  -1.5549837729872829 -1.1151113410295357 A 5 5 0 0 1  -1.8518320660125007 -1.5201754512899432 A 5.833333333333334 5.833333333333334 0 0 1  -2.1605260577754954 -1.9947999156481466 A 6.666666666666667 6.666666666666667 0 0 1  -2.4726583000196998 -2.545891764099877 A 7.5 7.5 0 0 1  -2.7780568550571143 -3.1803528469691367 A 8.333333333333334 8.333333333333334 0 0 1  -3.0645882131200395 -3.904754826841954 A 9.166666666666668 9.166666666666668 0 0 1  -3.3179957449051374 -4.724940441084529 A 10 10 0 0 1  -3.5217962452485896 -5.64555225341184 A 10.833333333333334 10.833333333333334 0 0 1  -3.6572583606759133 -6.669497007491494 A 11.666666666666668 11.666666666666668 0 0 1  -3.7034854274696416 -7.797361339938993 A 12.5 12.5 0 0 1  -3.6376210991429208 -9.026801861757084 A 13.333333333333334 13.333333333333334 0 0 1  -3.4351893347956355 -10.351938144579586 A 14.166666666666668 14.166666666666668 0 0 1  -3.0705717717879364 -11.762779790717797 A 15 15 0 0 1  -2.517616696038923 -13.244717936706508 A 15.833333333333334 15.833333333333334 0 0 1  -1.7503664108137245 -14.778107502930032 A 16.666666666666668 16.666666666666668 0 0 1  -0.7438851236206583 -16.33796038069828 A 17.5 17.5 0 0 1  0.5248319120006388 -17.89376322130953 A 18.333333333333336 18.333333333333336 0 0 1  2.075885731962638 -19.409428276511758 A 19.166666666666668 19.166666666666668 0 0 1  3.925451951477996 -20.84338307034784 A 20 20 0 0 1  6.084721098624669 -22.148804983152946 A 20.833333333333336 20.833333333333336 0 0 1  8.558810071155776 -23.27400968379744 A 21.666666666666668 21.666666666666668 0 0 1  11.345654218432731 -24.16300672616362 A 22.5 22.5 0 0 1  14.434892838177483 -24.756240234985025 A 23.333333333333336 23.333333333333336 0 0 1  17.806766886181343 -24.99153620915309 A 24.166666666666668 24.166666666666668 0 0 1  21.43105587455748 -24.805279599461215 L 17.42624219829105 -6.66073995303068 A 23.333333333333336 23.333333333333336 0 0 0  16.022598967605475 -7.584234932886581 A 22.5 22.5 0 0 0  14.62908165590596 -8.307961494226337 A 21.666666666666668 21.666666666666668 0 0 0  13.263577818633195 -8.848602194727352 A 20.833333333333336 20.833333333333336 0 0 0  11.940442486488333 -9.222879476116741 A 20 20 0 0 0  10.67095186546852 -9.44713102097813 A 19.166666666666668 19.166666666666668 0 0 0  9.463768601145578 -9.53701806250757 A 18.333333333333336 18.333333333333336 0 0 0  8.32539173996795 -9.507357016895178 A 17.5 17.5 0 0 0  7.260567090961709 -9.372059583602674 A 16.666666666666668 16.666666666666668 0 0 0  6.272637637115982 -9.144161207672635 A 15.833333333333334 15.833333333333334 0 0 0  5.36381933894172 -8.83591312638852 A 15 15 0 0 0  4.535395155350235 -8.45891002485968 A 14.166666666666668 14.166666666666668 0 0 0  3.7878289063334436 -8.024224585967008 A 13.333333333333334 13.333333333333334 0 0 0  3.1208096742695655 -7.542522693921592 A 12.5 12.5 0 0 0  2.5332453240271553 -7.024138915230095 A 11.666666666666668 11.666666666666668 0 0 0  2.023228900893682 -6.479100511825923 A 10.833333333333334 10.833333333333334 0 0 0  1.5880030436340218 -5.91709824157241 A 10 10 0 0 0  1.2239448471596 -5.347411725366597 A 9.166666666666668 9.166666666666668 0 0 0  0.9265875003775077 -4.778804431754036 A 8.333333333333334 8.333333333333334 0 0 0  0.6906869499952573 -4.219407155565299 A 7.5 7.5 0 0 0  0.5103335619591844 -3.676608936000169 A 6.666666666666667 6.666666666666667 0 0 0  0.37910184162115135 -3.1569712322816548 A 5.833333333333334 5.833333333333334 0 0 0  0.2902267356705368 -2.6661760009509137 A 5 5 0 0 0  0.23679317004652478 -2.209012431581014 A 4.166666666666667 4.166666666666667 0 0 0  0.211925963764795 -1.7894016510375488 A 3.3333333333333335 3.3333333333333335 0 0 0  0.20896940981491374 -1.4104544585066816 A 2.5 2.5 0 0 0  0.22164883022066423 -1.074554419593566 A 1.6666666666666667 1.6666666666666667 0 0 0  0.24420958329404863 -0.7834573792142359 A 3.3333333333333335 3.3333333333333335 0 0 0  0.27153181705724183 -0.5383983743464628 A 2.5 2.5 0 0 0  0.29922143609092955 -0.3401976734661808 A 0.8333333333333334 0.8333333333333334 0 0 0 0 0" id="2"></path>
</g>

</g>
<g id="spiral2" transform="translate(-96.37552432989219 13.770488051117447)">
<g id="spiral2_connectedEdges" >

</g>
<g id="spiral2_spokes" >
<path visibility="inherit" fill="red" d="M 0 0 A 0.8333333333333334 0.8333333333333334 0 0 1  0.15445603798189653 -1.0428426965492246 A 1.6666666666666667 1.6666666666666667 0 0 1  0.36488405511101696 -1.0966038589541274 A 1.6666666666666667 1.6666666666666667 0 0 1  0.6285473671938329 -1.1589903403840176 A 2.5 2.5 0 0 1  0.9467485976190858 -1.2271065455108754 A 3.3333333333333335 3.3333333333333335 0 0 1  1.3209634207706233 -1.297412252905798 A 4.166666666666667 4.166666666666667 0 0 1  1.7527847028078316 -1.365682632676474 A 5 5 0 0 1  2.2438531365947143 -1.426964661639364 A 5.833333333333334 5.833333333333334 0 0 1  2.795772619403797 -1.4755319564571858 A 6.666666666666667 6.666666666666667 0 0 1  3.410008639406725 -1.504840652527577 A 7.5 7.5 0 0 1  4.087768125800792 -1.5074896409650733 A 8.333333333333334 8.333333333333334 0 0 1  4.82985962333976 -1.4751892019322037 A 9.166666666666668 9.166666666666668 0 0 1  5.636533314930612 -1.398742781654976 A 10 10 0 0 1  6.507301359950661 -1.2680472713901794 A 10.833333333333334 10.833333333333334 0 0 1  7.440740237431566 -1.0721175586507419 A 11.666666666666668 11.666666666666668 0 0 1  8.434278239098042 -0.7991412237633897 A 12.5 12.5 0 0 1  9.483972856340309 -0.4365689449414849 A 13.333333333333334 13.333333333333334 0 0 1  10.584284407603517 0.028754621559231364 A 14.166666666666668 14.166666666666668 0 0 1  11.727853680058766 0.610416023277323 A 15 15 0 0 1  12.905292418713898 1.322212549245434 A 15.833333333333334 15.833333333333334 0 0 1  14.104996014717498 2.1778864904474364 A 16.666666666666668 16.666666666666668 0 0 1  15.312987610693257 3.190816668513873 A 17.5 17.5 0 0 1  16.512802038634675 4.373671808103394 A 18.333333333333336 18.333333333333336 0 0 1  17.68541663344723 5.738031959601781 A 19.166666666666668 19.166666666666668 0 0 1  18.80923422741977 7.2939852194626065 A 20 20 0 0 1  19.860121803667855 9.049707358972647 A 20.833333333333336 20.833333333333336 0 0 1  20.811506660969023 11.011031700911502 A 21.666666666666668 21.666666666666668 0 0 1  21.634530762409966 13.181015842744149 A 22.5 22.5 0 0 1  22.29826335171873 15.559510866740554 A 23.333333333333336 23.333333333333336 0 0 1  22.769971945268402 18.142737785721025 A 24.166666666666668 24.166666666666668 0 0 1  23.015452344665256 20.92287540553205 L 6.373810269958396 19.52797431321532 A 23.333333333333336 23.333333333333336 0 0 0  6.9627347447973165 18.21070788935114 A 22.5 22.5 0 0 0  7.417785262503126 16.919905755790086 A 21.666666666666668 21.666666666666668 0 0 0  7.749166911842595 15.663029227046682 A 20.833333333333336 20.833333333333336 0 0 0  7.966813804528927 14.446293996791486 A 20 20 0 0 0  8.080351272057882 13.274846673783191 A 19.166666666666668 19.166666666666668 0 0 0  8.099090318442489 12.152918650679464 A 18.333333333333336 18.333333333333336 0 0 0  8.03204565141527 11.083953011850351 A 17.5 17.5 0 0 0  7.887968022536604 10.070702573850465 A 16.666666666666668 16.666666666666668 0 0 0  7.675381734471168 9.115299690854117 A 15.833333333333334 15.833333333333334 0 0 0  7.402619079890458 8.219300883447056 A 15 15 0 0 0  7.0778451021038755 7.383711378117086 A 14.166666666666668 14.166666666666668 0 0 0  6.70906823303339 6.608996028305706 A 13.333333333333334 13.333333333333334 0 0 0  6.304134795826622 5.895083667997376 A 12.5 12.5 0 0 0  5.870707740528019 5.241371692939335 A 11.666666666666668 11.666666666666668 0 0 0  5.416232014078972 4.646736671135479 A 10.833333333333334 10.833333333333334 0 0 0  4.947890427603497 4.109555257800645 A 10 10 0 0 0  4.472554661486212 3.6277378941066822 A 9.166666666666668 9.166666666666668 0 0 0  3.9967361464325264 3.198775971562423 A 8.333333333333334 8.333333333333334 0 0 0  3.5265410795024 2.819801568748696 A 7.5 7.5 0 0 0  3.0676329442707466 2.4876576641017163 A 6.666666666666667 6.666666666666667 0 0 0  2.625204792624578 2.198975963420889 A 5.833333333333334 5.833333333333334 0 0 0  2.2039623881970902 1.9502591445904016 A 5 5 0 0 0  1.8081182471452137 1.7379643506863274 A 4.166666666666667 4.166666666666667 0 0 0  1.4413957324254887 1.558585061828293 A 3.3333333333333335 3.3333333333333335 0 0 0  1.1070417075321612 1.4087289433765084 A 2.5 2.5 0 0 0  0.807845840731288 1.2851898094679874 A 1.6666666666666667 1.6666666666666667 0 0 0  0.5461644499794984 1.185012380913732 A 3.3333333333333335 3.3333333333333335 0 0 0  0.323946755505621 1.1055490017586482 A 2.5 2.5 0 0 0  0.14276151963455444 1.0445078773885605 A 0.8333333333333334 0.8333333333333334 0 0 0 0 0" id="0"></path><path visibility="inherit" fill="red" d="M 0 0 A 0.8333333333333334 0.8333333333333334 0 0 1  -0.15445603798189622 1.0428426965492248 A 1.6666666666666667 1.6666666666666667 0 0 1  -0.3648840551110168 1.0966038589541274 A 1.6666666666666667 1.6666666666666667 0 0 1  -0.6285473671938322 1.158990340384018 A 2.5 2.5 0 0 1  -0.9467485976190858 1.2271065455108756 A 3.3333333333333335 3.3333333333333335 0 0 1  -1.3209634207706227 1.2974122529057985 A 4.166666666666667 4.166666666666667 0 0 1  -1.7527847028078323 1.3656826326764742 A 5 5 0 0 1  -2.243853136594714 1.4269646616393645 A 5.833333333333334 5.833333333333334 0 0 1  -2.7957726194037984 1.4755319564571856 A 6.666666666666667 6.666666666666667 0 0 1  -3.410008639406725 1.504840652527577 A 7.5 7.5 0 0 1  -4.087768125800789 1.5074896409650749 A 8.333333333333334 8.333333333333334 0 0 1  -4.829859623339761 1.4751892019322037 A 9.166666666666668 9.166666666666668 0 0 1  -5.636533314930609 1.3987427816549785 A 10 10 0 0 1  -6.507301359950663 1.2680472713901791 A 10.833333333333334 10.833333333333334 0 0 1  -7.440740237431564 1.0721175586507452 A 11.666666666666668 11.666666666666668 0 0 1  -8.434278239098042 0.799141223763391 A 12.5 12.5 0 0 1  -9.483972856340309 0.43656894494148624 A 13.333333333333334 13.333333333333334 0 0 1  -10.584284407603523 -0.028754621559234916 A 14.166666666666668 14.166666666666668 0 0 1  -11.727853680058764 -0.6104160232773221 A 15 15 0 0 1  -12.905292418713891 -1.3222125492454224 A 15.833333333333334 15.833333333333334 0 0 1  -14.1049960147175 -2.1778864904474338 A 16.666666666666668 16.666666666666668 0 0 1  -15.312987610693265 -3.190816668513883 A 17.5 17.5 0 0 1  -16.51280203863467 -4.373671808103383 A 18.333333333333336 18.333333333333336 0 0 1  -17.685416633447225 -5.738031959601768 A 19.166666666666668 19.166666666666668 0 0 1  -18.809234227419772 -7.293985219462606 A 20 20 0 0 1  -19.860121803667862 -9.049707358972663 A 20.833333333333336 20.833333333333336 0 0 1  -20.81150666096902 -11.011031700911499 A 21.666666666666668 21.666666666666668 0 0 1  -21.63453076240997 -13.181015842744115 A 22.5 22.5 0 0 1  -22.298263351718735 -15.559510866740585 A 23.333333333333336 23.333333333333336 0 0 1  -22.76997194526841 -18.14273778572098 A 24.166666666666668 24.166666666666668 0 0 1  -23.01545234466526 -20.92287540553206 L -6.373810269958401 -19.527974313215303 A 23.333333333333336 23.333333333333336 0 0 0  -6.962734744797325 -18.210707889351173 A 22.5 22.5 0 0 0  -7.4177852625031235 -16.919905755790058 A 21.666666666666668 21.666666666666668 0 0 0  -7.749166911842607 -15.663029227046708 A 20.833333333333336 20.833333333333336 0 0 0  -7.966813804528928 -14.446293996791486 A 20 20 0 0 0  -8.080351272057875 -13.274846673783179 A 19.166666666666668 19.166666666666668 0 0 0  -8.099090318442489 -12.152918650679457 A 18.333333333333336 18.333333333333336 0 0 0  -8.032045651415277 -11.083953011850353 A 17.5 17.5 0 0 0  -7.887968022536611 -10.070702573850472 A 16.666666666666668 16.666666666666668 0 0 0  -7.675381734471161 -9.115299690854108 A 15.833333333333334 15.833333333333334 0 0 0  -7.40261907989046 -8.219300883447055 A 15 15 0 0 0  -7.077845102103886 -7.383711378117091 A 14.166666666666668 14.166666666666668 0 0 0  -6.709068233033391 -6.6089960283057065 A 13.333333333333334 13.333333333333334 0 0 0  -6.304134795826617 -5.895083667997373 A 12.5 12.5 0 0 0  -5.870707740528019 -5.2413716929393335 A 11.666666666666668 11.666666666666668 0 0 0  -5.416232014078971 -4.6467366711354785 A 10.833333333333334 10.833333333333334 0 0 0  -4.9478904276034985 -4.109555257800645 A 10 10 0 0 0  -4.47255466148621 -3.627737894106681 A 9.166666666666668 9.166666666666668 0 0 0  -3.996736146432529 -3.198775971562423 A 8.333333333333334 8.333333333333334 0 0 0  -3.5265410795023997 -2.8198015687486953 A 7.5 7.5 0 0 0  -3.067632944270749 -2.4876576641017167 A 6.666666666666667 6.666666666666667 0 0 0  -2.625204792624578 -2.198975963420889 A 5.833333333333334 5.833333333333334 0 0 0  -2.203962388197089 -1.9502591445904014 A 5 5 0 0 0  -1.8081182471452142 -1.737964350686327 A 4.166666666666667 4.166666666666667 0 0 0  -1.4413957324254885 -1.5585850618282928 A 3.3333333333333335 3.3333333333333335 0 0 0  -1.107041707532162 -1.408728943376508 A 2.5 2.5 0 0 0  -0.807845840731288 -1.2851898094679872 A 1.6666666666666667 1.6666666666666667 0 0 0  -0.5461644499794991 -1.185012380913732 A 3.3333333333333335 3.3333333333333335 0 0 0  -0.3239467555056212 -1.1055490017586482 A 2.5 2.5 0 0 0  -0.14276151963455475 -1.0445078773885603 A 0.8333333333333334 0.8333333333333334 0 0 0 0 0" id="1"></path>
</g>

</g>
<g id="spiral3" transform="translate(70.81967963547005 13.770488051117443)">
<g id="spiral3_connectedEdges" >

</g>
<g id="spiral3_spokes" >
<path visibility="inherit" fill="blue" d="M 0 0 A 0.8333333333333334 0.8333333333333334 0 0 1  0.15243985979571456 -0.27230104035613323 A 1.6666666666666667 1.6666666666666667 0 0 1  0.3585031120331285 -0.29506432114736325 A 1.6666666666666667 1.6666666666666667 0 0 1  0.6169855333649176 -0.3126483727671311 A 2.5 2.5 0 0 1  0.9289970581229302 -0.3178934134128324 A 3.3333333333333335 3.3333333333333335 0 0 1  1.2952968971007601 -0.3020265646558593 A 4.166666666666667 4.166666666666667 0 0 1  1.7159408804238985 -0.25459515906489694 A 5 5 0 0 1  2.1898457888953473 -0.16344105893007832 A 5.833333333333334 5.833333333333334 0 0 1  2.7142701174103983 -0.014747140247526103 A 6.666666666666667 6.666666666666667 0 0 1  3.2842205487656875 0.20680750721070496 A 7.5 7.5 0 0 1  3.8918070187007423 0.5177453874975589 A 8.333333333333334 8.333333333333334 0 0 1  4.525584892146621 0.9353073585666654 A 9.166666666666668 9.166666666666668 0 0 1  5.169937170716222 1.4767656898615433 A 10 10 0 0 1  5.804558792490296 2.158528397869237 A 10.833333333333334 10.833333333333334 0 0 1  6.404105897583419 2.995050178297051 A 11.666666666666668 11.666666666666668 0 0 1  6.9380651460098015 3.99758318463809 A 12.5 12.5 0 0 1  7.370885052963739 5.172812061520754 A 13.333333333333334 13.333333333333334 0 0 1  7.662398406025439 6.521420817706988 A 14.166666666666668 14.166666666666668 0 0 1  7.768557212797292 8.036637137046258 A 15 15 0 0 1  7.642501219660246 9.702798042469118 A 15.833333333333334 15.833333333333334 0 0 1  7.235985746080873 11.493984796783845 A 16.666666666666668 16.666666666666668 0 0 1  6.501199492053823 13.372787375875486 A 17.5 17.5 0 0 1  5.393002635742766 15.289279292636547 A 18.333333333333336 18.333333333333336 0 0 1  3.871605776638878 17.180308915939605 A 19.166666666666668 19.166666666666668 0 0 1  1.9056889571942235 18.969239466063442 A 20 20 0 0 1  -0.5240732304391196 20.56629226690918 A 20.833333333333336 20.833333333333336 0 0 1  -3.4211587276396953 21.869662721413224 A 21.666666666666668 21.666666666666668 0 0 1  -6.769149327254803 22.767582391417683 A 22.5 22.5 0 0 1  -10.527679386303406 23.141490254251313 A 23.333333333333336 23.333333333333336 0 0 1  -14.628640698127418 22.870448489037457 A 24.166666666666668 24.166666666666668 0 0 1  -18.97296853378757 21.836889955706972 L -16.3823705255398 13.518449103620405 A 23.333333333333336 23.333333333333336 0 0 0  -13.505477845296875 14.733783099341679 A 22.5 22.5 0 0 0  -10.720573981275175 15.413247174628967 A 21.666666666666668 21.666666666666668 0 0 0  -8.102315506606688 15.627992336605615 A 20.833333333333336 20.833333333333336 0 0 0  -5.704747542946609 15.453051478311057 A 20 20 0 0 0  -3.563273086083509 14.963263718855664 A 19.166666666666668 19.166666666666668 0 0 0  -1.6970885775376625 14.230105194360306 A 18.333333333333336 18.333333333333336 0 0 0  -0.1118539140612742 13.319384700307275 A 17.5 17.5 0 0 0  1.1975932996109333 12.28972678229474 A 16.666666666666668 16.666666666666668 0 0 0  2.2446283677030645 11.191742337666767 A 15.833333333333334 15.833333333333334 0 0 0  3.0484460110061753 10.06777477379616 A 15 15 0 0 0  3.631959908116298 8.952105411668457 A 14.166666666666668 14.166666666666668 0 0 0  4.020042813428136 7.871502585173871 A 13.333333333333334 13.333333333333334 0 0 0  4.238128622871095 6.846003006878953 A 12.5 12.5 0 0 0  4.311173770501342 5.889820867584054 A 11.666666666666668 11.666666666666668 0 0 0  4.262952716947627 5.012290501141786 A 10.833333333333334 10.833333333333334 0 0 0  4.115641541166575 4.218763747482927 A 10 10 0 0 0  3.8896270751374504 3.511404445675408 A 9.166666666666668 9.166666666666668 0 0 0  3.6034701828669333 2.8898489494320403 A 8.333333333333334 8.333333333333334 0 0 0  3.273953763423438 2.3517295873354023 A 7.5 7.5 0 0 0  2.9161593058538804 1.893081929190787 A 6.666666666666667 6.666666666666667 0 0 0  2.543537000236693 1.5086711286357988 A 5.833333333333334 5.833333333333334 0 0 0  2.167957278013391 1.1922749355696394 A 5 5 0 0 0  1.7997497334711363 0.93695283592373 A 4.166666666666667 4.166666666666667 0 0 0  1.4477447027374262 0.7353170442513194 A 3.3333333333333335 3.3333333333333335 0 0 0  1.119333121349278 0.5798073822836108 A 2.5 2.5 0 0 0  0.8205543922359008 0.46296247003514035 A 1.6666666666666667 1.6666666666666667 0 0 0  0.5562137104870216 0.377675553432128 A 3.3333333333333335 3.3333333333333335 0 0 0  0.33002281443112186 0.31742387886019696 A 2.5 2.5 0 0 0  0.14475320904078354 0.2764638781214733 A 0.8333333333333334 0.8333333333333334 0 0 0 0 0" id="0"></path><path visibility="inherit" fill="blue" d="M 0 0 A 0.8333333333333334 0.8333333333333334 0 0 1  0.30608018612166016 0.060833272945810396 A 1.6666666666666667 1.6666666666666667 0 0 1  0.3914063995079481 0.24977683114295593 A 1.6666666666666667 1.6666666666666667 0 0 1  0.48800528732250703 0.4901744515178286 A 2.5 2.5 0 0 1  0.5894104809978997 0.7852942386024142 A 3.3333333333333335 3.3333333333333335 0 0 1  0.687513086375467 1.1385692132932268 A 4.166666666666667 4.166666666666667 0 0 1  0.7723892784395656 1.5532825250677451 A 5 5 0 0 1  0.8321412479547068 2.0321610424223895 A 5.833333333333334 5.833333333333334 0 0 1  0.8527809574330255 2.576867165193454 A 6.666666666666667 6.666666666666667 0 0 1  0.8181943354925155 3.1873863881464795 A 7.5 7.5 0 0 1  0.7102293830449149 3.861320548794544 A 8.333333333333334 8.333333333333334 0 0 1  0.5089524830561842 4.593112870483986 A 9.166666666666668 9.166666666666668 0 0 1  0.19311081321811863 5.373248129923251 A 10 10 0 0 1  -0.2591751866736509 6.187485421598748 A 10.833333333333334 10.833333333333334 0 0 1  -0.8694844325702674 7.016188049040439 A 11.666666666666668 11.666666666666668 0 0 1  -1.6579474989844574 7.833813208073601 A 12.5 12.5 0 0 1  -2.6419078737293997 8.60861509620133 A 13.333333333333334 13.333333333333334 0 0 1  -3.8344284390497276 9.302603794642117 A 14.166666666666668 14.166666666666668 0 0 1  -5.242679917759034 9.871794412414697 A 15 15 0 0 1  -6.866246548179837 10.266780073862465 A 15.833333333333334 15.833333333333334 0 0 1  -8.69538657258483 10.433668030922547 A 16.666666666666668 16.666666666666668 0 0 1  -10.709295447989543 10.315426701960813 A 17.5 17.5 0 0 1  -12.874439235565141 9.853697432289767 A 18.333333333333336 18.333333333333336 0 0 1  -15.143052765966456 8.991123326035131 A 19.166666666666668 19.166666666666668 0 0 1  -17.45192852959715 7.6742352661528415 A 20 20 0 0 1  -19.721653810977273 5.856910560932022 A 20.833333333333336 20.833333333333336 0 0 1  -21.85648142767209 3.504382140963178 A 21.666666666666668 21.666666666666668 0 0 1  -23.74503977322806 0.5977263023192285 A 22.5 22.5 0 0 1  -25.26209694478507 -2.8613043180841378 A 23.333333333333336 23.333333333333336 0 0 1  -26.27158764641809 -6.845306808405149 A 24.166666666666668 24.166666666666668 0 0 1  -26.63108619867679 -11.296395256912527 L -17.919240010741603 -11.403129730064807 A 23.333333333333336 23.333333333333336 0 0 0  -18.186082597659393 -8.291483341318461 A 22.5 22.5 0 0 0  -17.971708712366663 -5.432916427854041 A 21.666666666666668 21.666666666666668 0 0 0  -17.36685713366862 -2.8764447396649815 A 20.833333333333336 20.833333333333336 0 0 0  -16.45958924448141 -0.6502818027891162 A 20 20 0 0 0  -15.332021404059207 1.2350286925816087 A 19.166666666666668 19.166666666666668 0 0 0  -14.058063484080625 2.783317186403281 A 18.333333333333336 18.333333333333336 0 0 0  -12.702052372601493 4.009536833171522 A 17.5 17.5 0 0 0  -11.318148057859137 4.936713343420407 A 16.666666666666668 16.666666666666668 0 0 0  -9.950351167257988 5.593207014769584 A 15.833333333333334 15.833333333333334 0 0 0  -8.633001179375373 6.010357943983795 A 15 15 0 0 0  -7.391620851831987 6.220551845178241 A 14.166666666666668 14.166666666666668 0 0 0  -6.243982279199585 6.255715983581389 A 13.333333333333334 13.333333333333334 0 0 0  -5.201282001454384 6.146231116346149 A 12.5 12.5 0 0 0  -4.269326555138554 5.920224649223718 A 11.666666666666668 11.666666666666668 0 0 0  -3.4496467069215235 5.603191905708102 A 10.833333333333334 10.833333333333334 0 0 0  -2.7404795737774283 5.217877399686664 A 10 10 0 0 0  -2.137583211408975 4.784338823604973 A 9.166666666666668 9.166666666666668 0 0 0  -1.6348761492367636 4.320116235241976 A 8.333333333333334 8.333333333333334 0 0 0  -1.2249203969037883 3.840439469413924 A 7.5 7.5 0 0 0  -0.8992851208239994 3.3584267982511484 A 6.666666666666667 6.666666666666667 0 0 0  -0.6488353489408273 2.8852524561842285 A 5.833333333333334 5.833333333333334 0 0 0  -0.46398520470389937 2.4302831133624534 A 5 5 0 0 0  -0.33494184680212385 2.0011980609464244 A 4.166666666666667 4.166666666666667 0 0 0  -0.2519503498159377 1.6041124963974323 A 3.3333333333333335 3.3333333333333335 0 0 0  -0.20553663225318114 1.2437193935539124 A 2.5 2.5 0 0 0  -0.18673822191712025 0.9234568727092234 A 1.6666666666666667 1.6666666666666667 0 0 0  -0.18731130709216712 0.6456988381818791 A 3.3333333333333335 3.3333333333333335 0 0 0  -0.19990539022700746 0.41195972117900026 A 2.5 2.5 0 0 0  -0.21820157122374487 0.2231005193832112 A 0.8333333333333334 0.8333333333333334 0 0 0 0 0" id="1"></path><path visibility="inherit" fill="blue" d="M 0 0 A 0.8333333333333334 0.8333333333333334 0 0 1  0.0367280985103654 0.30989807068354347 A 1.6666666666666667 1.6666666666666667 0 0 1  -0.1166006537229966 0.44943489239595324 A 1.6666666666666667 1.6666666666666667 0 0 1  -0.31538167910994996 0.6155928442219867 A 2.5 2.5 0 0 1  -0.5647213475408045 0.8032319440385942 A 3.3333333333333335 3.3333333333333335 0 0 1  -0.8703904420103794 1.005701037015302 A 4.166666666666667 4.166666666666667 0 0 1  -1.2385780538022404 1.2145765536880242 A 5 5 0 0 1  -1.6755542142185833 1.4193856537605325 A 5.833333333333334 5.833333333333334 0 0 1  -2.1872225007581116 1.6073386328306714 A 6.666666666666667 6.666666666666667 0 0 1  -2.778548640028679 1.7631056159425842 A 7.5 7.5 0 0 1  -3.4528611201701156 1.8686819531158658 A 8.333333333333334 8.333333333333334 0 0 1  -4.2110349589592415 1.9033925095570323 A 9.166666666666668 9.166666666666668 0 0 1  -5.050588124552294 1.8440842844178365 A 10 10 0 0 1  -5.964737866895211 1.665547897573259 A 10.833333333333334 10.833333333333334 0 0 1  -6.9414768296007585 1.3411925074707567 A 11.666666666666668 11.666666666666668 0 0 1  -7.962733051945077 0.8439796394692511 A 12.5 12.5 0 0 1  -9.003673914074474 0.1476046639971138 A 13.333333333333334 13.333333333333334 0 0 1  -10.032205508787376 -0.7720954887444089 A 14.166666666666668 14.166666666666668 0 0 1  -11.00871159410888 -1.9355326602226788 A 15 15 0 0 1  -11.886074961572026 -3.357579001801962 A 15.833333333333334 15.833333333333334 0 0 1  -12.610030193257753 -5.045623326340518 A 16.666666666666668 16.666666666666668 0 0 1  -13.119908074475891 -6.997503065605474 A 17.5 17.5 0 0 1  -13.349843669417243 -9.1993593646239 A 18.333333333333336 18.333333333333336 0 0 1  -13.230527079439257 -11.62348910340789 A 19.166666666666668 19.166666666666668 0 0 1  -12.691573957719228 -14.226301233917903 A 20 20 0 0 1  -11.664579139103727 -16.946522471184977 A 20.833333333333336 20.833333333333336 0 0 1  -10.086889669142494 -19.703835448729848 A 21.666666666666668 21.666666666666668 0 0 1  -7.906092316818226 -22.398167220614607 A 22.5 22.5 0 0 1  -5.08515515266863 -24.909873574984157 A 23.333333333333336 23.333333333333336 0 0 1  -1.6080934057808216 -27.101080760052902 A 24.166666666666668 24.166666666666668 0 0 1  2.51405210567707 -28.818446174832015 L 5.307671146334464 -20.565970854924874 A 23.333333333333336 23.333333333333336 0 0 0  2.2658606777303962 -19.858201621430034 A 22.5 22.5 0 0 0  -0.3865528388800268 -18.770974185080423 A 21.666666666666668 21.666666666666668 0 0 0  -2.6309924797640982 -17.405732952479415 A 20.833333333333336 20.833333333333336 0 0 0  -4.467838051005113 -15.85494773470029 A 20 20 0 0 0  -5.9124372578659585 -14.19997400975889 A 19.166666666666668 19.166666666666668 0 0 0  -6.991272471627926 -12.509920571691348 A 18.333333333333336 18.333333333333336 0 0 0  -7.738446179087694 -10.841354658262658 A 17.5 17.5 0 0 0  -8.192593489071491 -9.238670143345798 A 16.666666666666668 16.666666666666668 0 0 0  -8.39428358906569 -7.7349502964248265 A 15.833333333333334 15.833333333333334 0 0 0  -8.383934164778086 -6.353169279861238 A 15 15 0 0 0  -8.200232826500914 -5.107592942567429 A 14.166666666666668 14.166666666666668 0 0 0  -7.879036087125515 -4.005257483354591 A 13.333333333333334 13.333333333333334 0 0 0  -7.4526976848429864 -3.0474232742648253 A 12.5 12.5 0 0 0  -6.94976269064947 -2.2309208133288703 A 11.666666666666668 11.666666666666668 0 0 0  -6.394951631004276 -1.549327457925881 A 10.833333333333334 10.833333333333334 0 0 0  -5.8093510632358525 -0.9939381653466499 A 10 10 0 0 0  -5.210726153569347 -0.5545204389918464 A 9.166666666666668 9.166666666666668 0 0 0  -4.613879210491798 -0.21987028070226378 A 8.333333333333334 8.333333333333334 0 0 0  -4.030996202222991 0.021792536499015913 A 7.5 7.5 0 0 0  -3.4719480761001686 0.18253998085690892 A 6.666666666666667 6.666666666666667 0 0 0  -2.944539298984522 0.27451295541017084 A 5.833333333333334 5.833333333333334 0 0 0  -2.454715904797478 0.30972263077327067 A 5 5 0 0 0  -2.0067551790495095 0.29985558396154455 A 4.166666666666667 4.166666666666667 0 0 0  -1.6034585824011018 0.2560790003007372 A 3.3333333333333335 3.3333333333333335 0 0 0  -1.2463617460149319 0.18885347540011366 A 2.5 2.5 0 0 0  -0.9359649603794015 0.10776526444384471 A 1.6666666666666667 1.6666666666666667 0 0 0  -0.6719784647471503 0.02138827506059171 A 3.3333333333333335 3.3333333333333335 0 0 0  -0.45357114012572347 -0.06281876917564508 A 2.5 2.5 0 0 0  -0.27960919645568894 -0.138580174234894 A 0.8333333333333334 0.8333333333333334 0 0 0 0 0" id="2"></path><path visibility="inherit" fill="blue" d="M 0 0 A 0.8333333333333334 0.8333333333333334 0 0 1  -0.2833809729001 0.13069426778463697 A 1.6666666666666667 1.6666666666666667 0 0 1  -0.463469566619217 0.027989208087894735 A 1.6666666666666667 1.6666666666666667 0 0 1  -0.6829218844414688 -0.10971715055742143 A 2.5 2.5 0 0 1  -0.9384274679507587 -0.2888695963369098 A 3.3333333333333335 3.3333333333333335 0 0 1  -1.2254439630209257 -0.5170117898967539 A 4.166666666666667 4.166666666666667 0 0 1  -1.5378726134090461 -0.8026329329498345 A 5 5 0 0 1  -1.8676907023349147 -1.15493246525439 A 5.833333333333334 5.833333333333334 0 0 1  -2.204558803860081 -1.583477258673314 A 6.666666666666667 6.666666666666667 0 0 1  -2.535431834425035 -2.097727191738144 A 7.5 7.5 0 0 1  -2.844214913743082 -2.706411587605401 A 8.333333333333334 8.333333333333334 0 0 1  -3.111515215507015 -3.4167516056457825 A 9.166666666666668 9.166666666666668 0 0 1  -3.314545937368023 -4.233541364033496 A 10 10 0 0 1  -3.4272355490511353 -5.158120211007547 A 10.833333333333334 10.833333333333334 0 0 1  -3.420584180242865 -6.1872854939668125 A 11.666666666666668 11.666666666666668 0 0 1  -3.2632921704597857 -7.3122051050687205 A 12.5 12.5 0 0 1  -2.922668628789425 -8.517390396953108 A 13.333333333333334 13.333333333333334 0 0 1  -2.365815547504797 -9.779785049246629 A 14.166666666666668 14.166666666666668 0 0 1  -1.561078019745301 -11.068019382767808 A 15 15 0 0 1  -0.47975177090077237 -12.341878016889025 A 15.833333333333334 15.833333333333334 0 0 1  0.9019593139891313 -13.552034741030294 A 16.666666666666668 16.666666666666668 0 0 1  2.6007463286892554 -14.640121432886582 A 17.5 17.5 0 0 1  4.623782103367683 -15.539214194351976 A 18.333333333333336 18.333333333333336 0 0 1  6.966137341797109 -16.17483465980525 A 19.166666666666668 19.166666666666668 0 0 1  9.608104452993652 -16.466572962908664 A 20 20 0 0 1  12.512547438548175 -16.3304374392382 A 20.833333333333336 20.833333333333336 0 0 1  15.62244077137184 -15.682022157013275 A 21.666666666666668 21.666666666666668 0 0 1  18.858806003239994 -14.440554930362817 A 22.5 22.5 0 0 1  22.119298222369196 -12.53384420671891 A 23.333333333333336 23.333333333333336 0 0 1  25.277731264560963 -9.904082233163383 A 24.166666666666668 24.166666666666668 0 0 1  28.184855849473465 -6.51438398209306 L 21.199561180283418 -1.3073392699184967 A 23.333333333333336 23.333333333333336 0 0 0  19.58646151026865 -3.9815602161735715 A 22.5 22.5 0 0 0  17.732805919491042 -6.168183620472519 A 21.666666666666668 21.666666666666668 0 0 0  15.740814357029032 -7.8808898240713585 A 20.833333333333336 20.833333333333336 0 0 0  13.698313472730169 -9.148614787108816 A 20 20 0 0 0  11.677934222346817 -10.011095269977732 A 19.166666666666668 19.166666666666668 0 0 0  9.737219472003074 -10.514873296270048 A 18.333333333333336 18.333333333333336 0 0 0  7.919429613813548 -10.70986249606985 A 17.5 17.5 0 0 0  6.254846825601865 -10.646525502856969 A 16.666666666666668 16.666666666666668 0 0 0  4.762398598009934 -10.373669199251202 A 15.833333333333334 15.833333333333334 0 0 0  3.451444906101057 -9.936832495219733 A 15 15 0 0 0  2.323598249391798 -9.377217884384 A 14.166666666666668 14.166666666666668 0 0 0  1.3744701787690399 -8.7311012419894 A 13.333333333333334 13.333333333333334 0 0 0  0.5952615243437669 -8.029642277949298 A 12.5 12.5 0 0 0  -0.025863001428740873 -7.299009538070519 A 11.666666666666668 11.666666666666668 0 0 0  -0.5026507574506949 -6.560728934409772 A 10.833333333333334 10.833333333333334 0 0 0  -0.8498968358826673 -5.832164968586606 A 10 10 0 0 0  -1.0828226575648858 -5.127051302358443 A 9.166666666666668 9.166666666666668 0 0 0  -1.2166580228337012 -4.456003541831956 A 8.333333333333334 8.333333333333334 0 0 0  -1.2663722645917637 -3.826970941156459 A 7.5 7.5 0 0 0  -1.2464967973807113 -3.2456108857758244 A 6.666666666666667 6.666666666666667 0 0 0  -1.1709900190413964 -2.7155941193885593 A 5.833333333333334 5.833333333333334 0 0 0  -1.053112657185892 -2.2388640004595373 A 5 5 0 0 0  -0.9053010609503543 -1.8158771183417424 A 4.166666666666667 4.166666666666667 0 0 0  -0.7390415536606676 -1.4458469704064825 A 3.3333333333333335 3.3333333333333335 0 0 0  -0.5647572890617105 -1.1270015268631 A 2.5 2.5 0 0 0  -0.3917199358762984 -0.8568542764763066 A 1.6666666666666667 1.6666666666666667 0 0 0  -0.22799422382954487 -0.6324801572337018 A 3.3333333333333335 3.3333333333333335 0 0 0  -0.0804169906867308 -0.45078385566098295 A 2.5 2.5 0 0 0  0.0453935842470824 -0.3087477772272582 A 0.8333333333333334 0.8333333333333334 0 0 0 0 0" id="3"></path><path visibility="inherit" fill="blue" d="M 0 0 A 0.8333333333333334 0.8333333333333334 0 0 1  -0.21186717152764004 -0.2291245710578575 A 1.6666666666666667 1.6666666666666667 0 0 1  -0.1698392911988635 -0.43213661047944063 A 1.6666666666666667 1.6666666666666667 0 0 1  -0.10668725713600533 -0.6834017724152631 A 2.5 2.5 0 0 1  -0.015258723629267279 -0.9817631728912662 A 3.3333333333333335 3.3333333333333335 0 0 1  0.11302442155507803 -1.3252318957559155 A 4.166666666666667 4.166666666666667 0 0 1  0.2881205083478233 -1.7106309867410379 A 5 5 0 0 1  0.521257879703443 -2.1331731719984517 A 5.833333333333334 5.833333333333334 0 0 1  0.8247302297747705 -2.5859813991032885 A 6.666666666666667 6.666666666666667 0 0 1  1.211565590195511 -3.0595723195616245 A 7.5 7.5 0 0 1  1.69503963216754 -3.5413363018025668 A 8.333333333333334 8.333333333333334 0 0 1  2.2880127992634556 -4.015061132961901 A 9.166666666666668 9.166666666666668 0 0 1  3.00208607798597 -4.460556740169133 A 10 10 0 0 1  3.846589810129705 -4.853441506033702 A 10.833333333333334 10.833333333333334 0 0 1  4.827439544830472 -5.165145240841429 A 11.666666666666668 11.666666666666668 0 0 1  5.945907575379513 -5.363170927112217 A 12.5 12.5 0 0 1  7.19736536362956 -5.411641424766094 A 13.333333333333334 13.333333333333334 0 0 1  8.57005108931647 -5.272144074358065 A 14.166666666666668 14.166666666666668 0 0 1  10.043912318815899 -4.904879506470472 A 15 15 0 0 1  11.5895720609924 -4.270121097640602 A 15.833333333333334 15.833333333333334 0 0 1  13.167471705772574 -3.3299947603355817 A 16.666666666666668 16.666666666666668 0 0 1  14.727257701722356 -2.0505895793442477 A 17.5 17.5 0 0 1  16.207498165871947 -0.404403165950423 A 18.333333333333336 18.333333333333336 0 0 1  17.535836726969716 1.6268915212383965 A 19.166666666666668 19.166666666666668 0 0 1  18.629709077128524 4.0493994646102855 A 20 20 0 0 1  19.397758741971938 6.853757082581968 A 20.833333333333336 20.833333333333336 0 0 1  19.742089053082417 10.0118127433667 A 21.666666666666668 21.666666666666668 0 0 1  19.561475414061107 13.473413457240513 A 22.5 22.5 0 0 1  18.755633261387924 17.163531845535907 A 23.333333333333336 23.333333333333336 0 0 1  17.23059048576536 20.980021312583972 A 24.166666666666668 24.166666666666668 0 0 1  14.905146777313822 24.792335458130616 L 7.794378209663529 19.75799075128777 A 23.333333333333336 23.333333333333336 0 0 0  9.839238254957227 17.397462079580386 A 22.5 22.5 0 0 0  11.346029613030822 14.958827058778027 A 21.666666666666668 21.666666666666668 0 0 0  12.359350763010367 12.53507517961013 A 20.833333333333336 20.833333333333336 0 0 0  12.933861365702965 10.200792846287154 A 20 20 0 0 0  13.129797525661868 8.012776868299348 A 19.166666666666668 19.166666666666668 0 0 0  13.009205061243133 6.011371487197813 A 18.333333333333336 18.333333333333336 0 0 0  12.63292285193692 4.222295620853707 A 17.5 17.5 0 0 0  12.058301421717827 2.6587555204876234 A 16.666666666666668 16.666666666666668 0 0 0  11.337607790610678 1.3236701432396771 A 15.833333333333334 15.833333333333334 0 0 0  10.51704442704623 0.2118690573010138 A 15 15 0 0 0  9.636295520824799 -0.6878464298952665 A 14.166666666666668 14.166666666666668 0 0 0  8.72850537412793 -1.390859843411276 A 13.333333333333334 13.333333333333334 0 0 0  7.820589539082502 -1.9151685710109736 A 12.5 12.5 0 0 0  6.933778476715421 -2.28011516540838 A 11.666666666666668 11.666666666666668 0 0 0  6.084296378428869 -2.5054260145142377 A 10.833333333333334 10.833333333333334 0 0 0  5.284085931729372 -2.6105380132363365 A 10 10 0 0 0  4.541504947405757 -2.614171527930087 A 9.166666666666668 9.166666666666668 0 0 0  3.8619431996953297 -2.5340913621398005 A 8.333333333333334 8.333333333333334 0 0 0  3.2483351002951046 -2.38699065209188 A 7.5 7.5 0 0 0  2.701570688450998 -2.188437822523021 A 6.666666666666667 6.666666666666667 0 0 0  2.2208276667300533 -1.9528424208416402 A 5.833333333333334 5.833333333333334 0 0 0  1.8038564886738797 -1.693416679245824 A 5 5 0 0 0  1.447248353330851 -1.4221293624899576 A 4.166666666666667 4.166666666666667 0 0 0  1.1467057831402803 -1.1496615705430058 A 3.3333333333333335 3.3333333333333335 0 0 0  0.8973225459805456 -0.8853787243745372 A 2.5 2.5 0 0 0  0.6938687259369197 -0.6373303307119021 A 1.6666666666666667 1.6666666666666667 0 0 0  0.5310702851818403 -0.4122825094408965 A 3.3333333333333335 3.3333333333333335 0 0 0  0.40387070660834 -0.21578097520256947 A 2.5 2.5 0 0 0  0.3076639743915678 -0.05223644604253225 A 0.8333333333333334 0.8333333333333334 0 0 0 0 0" id="4"></path>
</g>

</g>
<g id="arrow" transform="translate(-19.51064045905337 -34.46089221165462)">
<g id="arrow_head" transform="translate(0 0)">
<path visibility="inherit" stroke-linecap="round" fill="transparent" id="curve" stroke="black" stroke-width="2" d="M 11.425527800598815 7.7310056980276505 C 8.048443963576991 9.701351486599341, 6.416262819078239 11.558975727146722, 3.2646220781050403 17.019126900764547M 3.2646220781050403 17.019126900764547 C 0.18513768568720257 11.517957381855213, -1.4224462743896065 9.639006366306843, -4.773297722279007 7.624371823022689 "></path>
</g>
<line visibility="inherit" stroke="black" stroke-width="2" stroke-linecap="round" x1="3.4525120481316214" y1="-11.52336807860028" x2="3.2646220781050403" y2="17.019126900764547" id="shaft"></line>
</g>
<g id="arrow1" transform="translate(-84.12193261974225 -44.4987271962216)">
<g id="arrow1_head" transform="translate(0 0)">
<path visibility="inherit" stroke-linecap="round" fill="transparent" id="curve" stroke="black" stroke-width="2" d="M 15.751940052383658 36.485661135058926 C 12.041040625256453 36.306703600933574, 9.778709462155062 36.9415089658838, 4.440284236876693 39.659687959810064M 4.440284236876693 39.659687959810064 C 6.564851425747957 34.05848316183293, 6.951130744700202 31.740745378851628, 6.371680831637919 28.07099904490355 "></path>
</g>
<line visibility="inherit" stroke="black" stroke-width="2" stroke-linecap="round" x1="47.5608782120468" y1="-8.409069276780754" x2="4.440284236876693" y2="39.659687959810064" id="shaft"></line>
</g>
<g id="arrow2" transform="translate(24.9435526575439 -49.80461545035598)">
<g id="arrow2_head" transform="translate(0 0)">
<path visibility="inherit" stroke-linecap="round" fill="transparent" id="curve" stroke="black" stroke-width="2" d="M 27.142180621655342 34.239739667536995 C 26.417001300240983 37.78216315299037, 26.69037840448304 40.052653108545265, 28.50906614286564 45.592189445311476M 28.50906614286564 45.592189445311476 C 23.036241103354037 43.58164872127944, 20.776651417077883 43.229350368921864, 17.21111771148486 43.83069768352357 "></path>
</g>
<line visibility="inherit" stroke="black" stroke-width="2" stroke-linecap="round" x1="-23.43714005586581" y1="-8.196080803020365" x2="28.50906614286564" y2="45.592189445311476" id="shaft"></line>
</g>

</g>
</svg>